<?xml version="1.0" encoding="UTF-8"?>
<svg version="1.1" xmlns="http://www.w3.org/2000/svg" width="1280" height="1280">
<path d="M0 0 C14.50318069 10.46033396 24.44357072 24.72549264 29.3203125 41.86425781 C29.51318848 42.48244385 29.70606445 43.10062988 29.90478516 43.73754883 C32.06276339 51.62582132 31.53524066 59.8224798 31.4453125 67.92675781 C31.4040625 73.18613281 31.3628125 78.44550781 31.3203125 83.86425781 C46.5003125 83.86425781 61.6803125 83.86425781 77.3203125 83.86425781 C77.20263357 73.63426738 77.20263357 73.63426738 77.05004883 63.40478516 C76.98014411 51.22933702 78.15135351 39.52698635 84.0078125 28.61425781 C84.35521484 27.94587891 84.70261719 27.2775 85.06054688 26.58886719 C88.17275108 20.78502691 91.87146016 15.72552842 96.3203125 10.86425781 C97.22330078 9.82398438 97.22330078 9.82398438 98.14453125 8.76269531 C109.02236764 -3.0501333 125.94402281 -11.11260584 142.00146484 -12.34082031 C144.88195828 -12.43902465 147.75071463 -12.46444982 150.6328125 -12.44824219 C151.64956055 -12.44405273 152.66630859 -12.43986328 153.71386719 -12.43554688 C160.97203908 -12.32624406 167.44347414 -11.55850524 174.3203125 -9.13574219 C175.63902344 -8.77029297 175.63902344 -8.77029297 176.984375 -8.39746094 C196.18479646 -2.55986882 209.70416502 13.71721542 218.85546875 30.71582031 C224.77296648 42.6888332 224.5925752 55.06391521 224.4453125 68.11425781 C224.4040625 73.31175781 224.3628125 78.50925781 224.3203125 83.86425781 C239.5003125 83.86425781 254.6803125 83.86425781 270.3203125 83.86425781 C270.1965625 76.71769531 270.1965625 76.71769531 270.0703125 69.42675781 C269.96250183 46.86151592 274.27528175 26.02014201 290.75390625 9.33496094 C298.76133822 1.8167611 307.69601786 -5.01485564 318.3203125 -8.13574219 C319.7434375 -8.68488281 319.7434375 -8.68488281 321.1953125 -9.24511719 C339.5039901 -15.67075884 360.35774544 -13.42714258 377.6953125 -5.32324219 C383.05154633 -2.47234354 387.70316648 0.94898564 392.3203125 4.86425781 C393.774375 6.0128125 393.774375 6.0128125 395.2578125 7.18457031 C398.4551156 9.85368901 400.95230544 12.85454111 403.4453125 16.17675781 C403.88125732 16.75578857 404.31720215 17.33481934 404.76635742 17.93139648 C413.67753966 29.96730085 418.47982994 45.26103811 418.41796875 60.23144531 C418.4165538 60.91103302 418.41513885 61.59062073 418.41368103 62.290802 C418.40812768 64.44033393 418.39558419 66.58975789 418.3828125 68.73925781 C418.37779146 70.20540213 418.37322961 71.6715481 418.36914062 73.13769531 C418.35817361 76.71325064 418.34094169 80.28874367 418.3203125 83.86425781 C419.5648671 83.85759598 420.80942169 83.85093414 422.09169006 83.84407043 C433.87462178 83.78300575 445.65752099 83.73816408 457.4405756 83.7088213 C463.49699103 83.69322831 469.55327776 83.67210738 475.60961914 83.63793945 C481.46462185 83.60511768 487.31950148 83.58735704 493.17458916 83.57962608 C495.39787162 83.57412327 497.62114808 83.56337879 499.84437752 83.54706764 C525.37487484 83.36736824 546.6586555 87.34068304 565.9765625 105.49707031 C582.16571953 121.84811891 587.91810779 141.21394009 587.92669201 163.61147594 C587.94160825 165.22933908 587.95817521 166.84718768 587.97624225 168.4650187 C588.01992421 172.82966597 588.03928564 177.19410713 588.05364388 181.55893668 C588.06904185 185.28489374 588.0988716 189.01068089 588.12880187 192.73654533 C588.22320937 204.49116096 588.27425186 216.24574128 588.31112828 228.00066188 C588.32005176 230.78295929 588.32996335 233.56525126 588.34023789 236.34754398 C588.42983555 260.8661216 588.43646088 285.38440454 588.41320961 309.90310781 C588.40360509 320.22958086 588.4003655 330.55605428 588.39697907 340.8825309 C588.38851135 365.73775828 588.36945604 390.5929736 588.34855388 415.44819312 C588.33869412 427.23268473 588.33000927 439.01717713 588.32138174 450.80166969 C588.29166902 491.26874587 588.25917792 531.73581883 588.21854115 572.20288563 C588.21601857 574.72260206 588.21349687 577.2423185 588.21097605 579.76203493 C588.20972583 581.01124691 588.20847561 582.26045888 588.20718751 583.54752576 C588.20085822 589.87405036 588.19454059 596.20057498 588.18823242 602.52709961 C588.18697773 603.78245596 588.18572304 605.03781232 588.18443032 606.33120977 C588.14366014 647.23103568 588.11870195 688.13085091 588.10275311 729.03069351 C588.08575721 772.45647988 588.0542823 815.88223236 588.00636977 859.30799598 C588.00117159 864.06931565 587.99603416 868.83063539 587.990942 873.59195518 C587.98968204 874.76399777 587.98842208 875.93604036 587.98712394 877.14359938 C587.96722858 895.97072302 587.96052832 914.79782901 587.9586445 933.62496208 C587.95643059 952.49945499 587.9395324 971.37389028 587.90766142 990.2483568 C587.88917467 1001.45013049 587.88173568 1012.65178352 587.89020396 1023.85356997 C587.89476202 1031.33654829 587.88481269 1038.81941721 587.86314437 1046.3023653 C587.8512171 1050.56257211 587.84549429 1054.8225303 587.85747883 1059.08274267 C587.86827364 1062.96499478 587.86040517 1066.84676433 587.83825313 1070.72896417 C587.83126426 1072.76709294 587.84363698 1074.80526084 587.85702923 1076.84335759 C587.68668662 1096.63312823 580.33620657 1114.00098727 566.8828125 1128.48925781 C565.614375 1129.66488281 565.614375 1129.66488281 564.3203125 1130.86425781 C563.82917969 1131.37214844 563.33804688 1131.88003906 562.83203125 1132.40332031 C547.44464767 1147.34716512 527.35776157 1151.02958567 506.74198627 1150.99289227 C504.86620379 1150.99552182 504.86620379 1150.99552182 502.95252672 1150.9982045 C499.48718949 1151.00291731 496.02187866 1151.00143842 492.55654016 1150.99892673 C488.78420982 1150.99728997 485.01188504 1151.00143755 481.23955649 1151.0048359 C474.6297692 1151.00998535 468.01998922 1151.01140789 461.41020012 1151.01037979 C451.58095547 1151.00885466 441.75171892 1151.01301707 431.92247585 1151.01825442 C413.3455189 1151.02792627 394.76856471 1151.0307386 376.19160555 1151.03131147 C361.84554241 1151.03177099 347.49948037 1151.03382918 333.15341759 1151.0370121 C329.02414932 1151.03790964 324.89488105 1151.03879946 320.76561278 1151.03968698 C319.73906823 1151.03990803 318.71252367 1151.04012907 317.6548717 1151.04035682 C288.77921385 1151.0465112 259.90355637 1151.05045737 231.02789783 1151.05001354 C229.93917703 1151.04999796 228.85045622 1151.04998238 227.72874387 1151.04996633 C222.21063596 1151.04988323 216.69252806 1151.04978419 211.17442016 1151.04968163 C210.07850144 1151.04966168 208.98258273 1151.04964174 207.85345436 1151.04962119 C205.63723948 1151.04958075 203.4210246 1151.04953895 201.20480972 1151.04949579 C166.72401932 1151.04888304 132.24323876 1151.0563896 97.76245117 1151.07006836 C59.0245685 1151.0854296 20.28669228 1151.09403456 -18.45119363 1151.09310514 C-22.58203367 1151.09303051 -26.71287372 1151.0929818 -30.84371376 1151.09295082 C-31.86083324 1151.09293917 -32.87795272 1151.09292751 -33.925894 1151.0929155 C-50.29235042 1151.09288473 -66.6587983 1151.09926998 -83.02525218 1151.10788309 C-99.47464633 1151.11636078 -115.92402799 1151.11734859 -132.37342312 1151.11077376 C-142.14417149 1151.10707892 -151.91488192 1151.10890854 -161.68562627 1151.1187161 C-168.21608318 1151.124717 -174.74651261 1151.1234194 -181.27696826 1151.11624561 C-184.99524704 1151.11236506 -188.7134524 1151.11158569 -192.431726 1151.11970296 C-196.44525977 1151.1283878 -200.45862105 1151.12146648 -204.47215557 1151.11314678 C-205.61520734 1151.11811496 -206.75825911 1151.12308314 -207.93594882 1151.12820187 C-218.86772446 1151.08036146 -230.01954422 1150.41901946 -239.9921875 1145.61425781 C-241.00297363 1145.14584473 -241.00297363 1145.14584473 -242.03417969 1144.66796875 C-260.74575777 1135.79508826 -274.576517 1121.16711145 -281.82958984 1101.77172852 C-285.48754184 1091.28731681 -285.96833384 1081.06776656 -285.93416309 1070.05502701 C-285.93655538 1068.45132667 -285.93982213 1066.84762745 -285.94387969 1065.24393046 C-285.95249015 1060.83769798 -285.9486772 1056.43155083 -285.94282397 1052.02531706 C-285.93865157 1047.23131919 -285.94605682 1042.43733683 -285.95197648 1037.64334273 C-285.9607413 1029.24129917 -285.96204958 1020.83927997 -285.95847321 1012.43723297 C-285.95316897 999.94295241 -285.95925872 987.44869547 -285.96755614 974.95441747 C-285.98280576 951.34189388 -285.98450021 927.72938099 -285.98203311 904.11685351 C-285.98020121 885.88398978 -285.9819579 867.65112958 -285.98625755 849.4182663 C-285.98685995 846.79973993 -285.98746115 844.18121357 -285.98806116 841.5626872 C-285.9889684 837.61692014 -285.98987707 833.67115307 -285.99079351 829.725386 C-285.99922457 793.03378298 -286.00357638 756.34218139 -285.99938679 719.65057755 C-285.99930873 718.95901937 -285.99923067 718.26746119 -285.99915025 717.5549467 C-285.99827746 709.84346075 -285.9973482 702.13197481 -285.99639962 694.42048886 C-285.99631411 693.72426472 -285.9962286 693.02804057 -285.9961405 692.31071872 C-285.99542973 686.52593135 -285.99542973 686.52593135 -285.99509827 683.86396862 C-285.98956282 639.33378342 -285.99710385 594.80361895 -286.01586914 550.2734375 C-286.02059143 539.05352915 -286.02527197 527.83362078 -286.029706 516.61371231 C-286.02997932 515.92284103 -286.03025265 515.23196976 -286.03053425 514.52016299 C-286.0389067 493.22406284 -286.04358532 471.92796442 -286.04441357 450.63186264 C-286.04443993 449.96316943 -286.0444663 449.29447621 -286.04449346 448.60551957 C-286.04505853 433.26689278 -286.04454617 417.92826618 -286.04329365 402.58963943 C-286.0428983 397.34159708 -286.04253676 392.09355474 -286.04219627 386.84551239 C-286.04210554 385.55329247 -286.04201481 384.26107254 -286.04192133 382.92969444 C-286.04075487 363.41386098 -286.04740736 343.8980401 -286.05800819 324.38220978 C-286.07005088 302.18920426 -286.07162991 279.99622646 -286.05921803 257.80322054 C-286.05258222 245.38186772 -286.05423713 232.96058116 -286.06780654 220.53923363 C-286.07604026 212.24199194 -286.07336749 203.94479998 -286.06183127 195.64756235 C-286.05556421 190.92017952 -286.05400157 186.19292613 -286.06569461 181.46555069 C-286.07624694 177.15971066 -286.07284087 172.85410954 -286.05859008 168.54828222 C-286.0558753 167.00533511 -286.05811428 165.46236866 -286.06609723 163.91943981 C-286.17955075 140.3726896 -279.71376238 121.39365298 -263.35546875 104.45800781 C-243.12074523 85.56742212 -220.60705537 83.5396728 -194.31640625 83.66894531 C-192.07054267 83.67268203 -189.82467745 83.67552589 -187.57881165 83.67752075 C-181.70825589 83.68510532 -175.83780132 83.70470859 -169.96728516 83.72692871 C-163.9606259 83.74749946 -157.95395006 83.75654634 -151.94726562 83.76660156 C-140.19136214 83.78795998 -128.43553328 83.82203242 -116.6796875 83.86425781 C-116.68852463 82.66117729 -116.68852463 82.66117729 -116.69754028 81.43379211 C-116.72108573 77.76088472 -116.73561193 74.08799329 -116.75 70.41503906 C-116.7641394 68.5225946 -116.7641394 68.5225946 -116.77856445 66.59191895 C-116.84913982 42.55316624 -109.97589076 24.64793463 -93.4296875 7.11425781 C-68.41438921 -16.86592469 -28.62757535 -19.35690124 0 0 Z " fill="#77D12E" transform="translate(497.6796875,81.1357421875)"/>
<path d="M0 0 C14.50318069 10.46033396 24.44357072 24.72549264 29.3203125 41.86425781 C29.51318848 42.48244385 29.70606445 43.10062988 29.90478516 43.73754883 C32.06276339 51.62582132 31.53524066 59.8224798 31.4453125 67.92675781 C31.4040625 73.18613281 31.3628125 78.44550781 31.3203125 83.86425781 C46.5003125 83.86425781 61.6803125 83.86425781 77.3203125 83.86425781 C77.20263357 73.63426738 77.20263357 73.63426738 77.05004883 63.40478516 C76.98014411 51.22933702 78.15135351 39.52698635 84.0078125 28.61425781 C84.35521484 27.94587891 84.70261719 27.2775 85.06054688 26.58886719 C88.17275108 20.78502691 91.87146016 15.72552842 96.3203125 10.86425781 C97.22330078 9.82398438 97.22330078 9.82398438 98.14453125 8.76269531 C109.02236764 -3.0501333 125.94402281 -11.11260584 142.00146484 -12.34082031 C144.88195828 -12.43902465 147.75071463 -12.46444982 150.6328125 -12.44824219 C151.64956055 -12.44405273 152.66630859 -12.43986328 153.71386719 -12.43554688 C160.97203908 -12.32624406 167.44347414 -11.55850524 174.3203125 -9.13574219 C175.63902344 -8.77029297 175.63902344 -8.77029297 176.984375 -8.39746094 C196.18479646 -2.55986882 209.70416502 13.71721542 218.85546875 30.71582031 C224.77296648 42.6888332 224.5925752 55.06391521 224.4453125 68.11425781 C224.4040625 73.31175781 224.3628125 78.50925781 224.3203125 83.86425781 C239.5003125 83.86425781 254.6803125 83.86425781 270.3203125 83.86425781 C270.1965625 76.71769531 270.1965625 76.71769531 270.0703125 69.42675781 C269.96250183 46.86151592 274.27528175 26.02014201 290.75390625 9.33496094 C298.76133822 1.8167611 307.69601786 -5.01485564 318.3203125 -8.13574219 C319.7434375 -8.68488281 319.7434375 -8.68488281 321.1953125 -9.24511719 C339.5039901 -15.67075884 360.35774544 -13.42714258 377.6953125 -5.32324219 C383.05154633 -2.47234354 387.70316648 0.94898564 392.3203125 4.86425781 C393.774375 6.0128125 393.774375 6.0128125 395.2578125 7.18457031 C398.4551156 9.85368901 400.95230544 12.85454111 403.4453125 16.17675781 C403.88125732 16.75578857 404.31720215 17.33481934 404.76635742 17.93139648 C413.67753966 29.96730085 418.47982994 45.26103811 418.41796875 60.23144531 C418.4165538 60.91103302 418.41513885 61.59062073 418.41368103 62.290802 C418.40812768 64.44033393 418.39558419 66.58975789 418.3828125 68.73925781 C418.37779146 70.20540213 418.37322961 71.6715481 418.36914062 73.13769531 C418.35817361 76.71325064 418.34094169 80.28874367 418.3203125 83.86425781 C419.5648671 83.85759598 420.80942169 83.85093414 422.09169006 83.84407043 C433.87462178 83.78300575 445.65752099 83.73816408 457.4405756 83.7088213 C463.49699103 83.69322831 469.55327776 83.67210738 475.60961914 83.63793945 C481.46462185 83.60511768 487.31950148 83.58735704 493.17458916 83.57962608 C495.39787162 83.57412327 497.62114808 83.56337879 499.84437752 83.54706764 C525.37487484 83.36736824 546.6586555 87.34068304 565.9765625 105.49707031 C582.16571953 121.84811891 587.91810779 141.21394009 587.92669201 163.61147594 C587.94160825 165.22933908 587.95817521 166.84718768 587.97624225 168.4650187 C588.01992421 172.82966597 588.03928564 177.19410713 588.05364388 181.55893668 C588.06904185 185.28489374 588.0988716 189.01068089 588.12880187 192.73654533 C588.22320937 204.49116096 588.27425186 216.24574128 588.31112828 228.00066188 C588.32005176 230.78295929 588.32996335 233.56525126 588.34023789 236.34754398 C588.42983555 260.8661216 588.43646088 285.38440454 588.41320961 309.90310781 C588.40360509 320.22958086 588.4003655 330.55605428 588.39697907 340.8825309 C588.38851135 365.73775828 588.36945604 390.5929736 588.34855388 415.44819312 C588.33869412 427.23268473 588.33000927 439.01717713 588.32138174 450.80166969 C588.29166902 491.26874587 588.25917792 531.73581883 588.21854115 572.20288563 C588.21601857 574.72260206 588.21349687 577.2423185 588.21097605 579.76203493 C588.20972583 581.01124691 588.20847561 582.26045888 588.20718751 583.54752576 C588.20085822 589.87405036 588.19454059 596.20057498 588.18823242 602.52709961 C588.18697773 603.78245596 588.18572304 605.03781232 588.18443032 606.33120977 C588.14366014 647.23103568 588.11870195 688.13085091 588.10275311 729.03069351 C588.08575721 772.45647988 588.0542823 815.88223236 588.00636977 859.30799598 C588.00117159 864.06931565 587.99603416 868.83063539 587.990942 873.59195518 C587.98968204 874.76399777 587.98842208 875.93604036 587.98712394 877.14359938 C587.96722858 895.97072302 587.96052832 914.79782901 587.9586445 933.62496208 C587.95643059 952.49945499 587.9395324 971.37389028 587.90766142 990.2483568 C587.88917467 1001.45013049 587.88173568 1012.65178352 587.89020396 1023.85356997 C587.89476202 1031.33654829 587.88481269 1038.81941721 587.86314437 1046.3023653 C587.8512171 1050.56257211 587.84549429 1054.8225303 587.85747883 1059.08274267 C587.86827364 1062.96499478 587.86040517 1066.84676433 587.83825313 1070.72896417 C587.83126426 1072.76709294 587.84363698 1074.80526084 587.85702923 1076.84335759 C587.68668662 1096.63312823 580.33620657 1114.00098727 566.8828125 1128.48925781 C565.614375 1129.66488281 565.614375 1129.66488281 564.3203125 1130.86425781 C563.82917969 1131.37214844 563.33804688 1131.88003906 562.83203125 1132.40332031 C547.44464767 1147.34716512 527.35776157 1151.02958567 506.74198627 1150.99289227 C504.86620379 1150.99552182 504.86620379 1150.99552182 502.95252672 1150.9982045 C499.48718949 1151.00291731 496.02187866 1151.00143842 492.55654016 1150.99892673 C488.78420982 1150.99728997 485.01188504 1151.00143755 481.23955649 1151.0048359 C474.6297692 1151.00998535 468.01998922 1151.01140789 461.41020012 1151.01037979 C451.58095547 1151.00885466 441.75171892 1151.01301707 431.92247585 1151.01825442 C413.3455189 1151.02792627 394.76856471 1151.0307386 376.19160555 1151.03131147 C361.84554241 1151.03177099 347.49948037 1151.03382918 333.15341759 1151.0370121 C329.02414932 1151.03790964 324.89488105 1151.03879946 320.76561278 1151.03968698 C319.73906823 1151.03990803 318.71252367 1151.04012907 317.6548717 1151.04035682 C288.77921385 1151.0465112 259.90355637 1151.05045737 231.02789783 1151.05001354 C229.93917703 1151.04999796 228.85045622 1151.04998238 227.72874387 1151.04996633 C222.21063596 1151.04988323 216.69252806 1151.04978419 211.17442016 1151.04968163 C210.07850144 1151.04966168 208.98258273 1151.04964174 207.85345436 1151.04962119 C205.63723948 1151.04958075 203.4210246 1151.04953895 201.20480972 1151.04949579 C166.72401932 1151.04888304 132.24323876 1151.0563896 97.76245117 1151.07006836 C59.0245685 1151.0854296 20.28669228 1151.09403456 -18.45119363 1151.09310514 C-22.58203367 1151.09303051 -26.71287372 1151.0929818 -30.84371376 1151.09295082 C-31.86083324 1151.09293917 -32.87795272 1151.09292751 -33.925894 1151.0929155 C-50.29235042 1151.09288473 -66.6587983 1151.09926998 -83.02525218 1151.10788309 C-99.47464633 1151.11636078 -115.92402799 1151.11734859 -132.37342312 1151.11077376 C-142.14417149 1151.10707892 -151.91488192 1151.10890854 -161.68562627 1151.1187161 C-168.21608318 1151.124717 -174.74651261 1151.1234194 -181.27696826 1151.11624561 C-184.99524704 1151.11236506 -188.7134524 1151.11158569 -192.431726 1151.11970296 C-196.44525977 1151.1283878 -200.45862105 1151.12146648 -204.47215557 1151.11314678 C-205.61520734 1151.11811496 -206.75825911 1151.12308314 -207.93594882 1151.12820187 C-218.86772446 1151.08036146 -230.01954422 1150.41901946 -239.9921875 1145.61425781 C-241.00297363 1145.14584473 -241.00297363 1145.14584473 -242.03417969 1144.66796875 C-260.74575777 1135.79508826 -274.576517 1121.16711145 -281.82958984 1101.77172852 C-285.48754184 1091.28731681 -285.96833384 1081.06776656 -285.93416309 1070.05502701 C-285.93655538 1068.45132667 -285.93982213 1066.84762745 -285.94387969 1065.24393046 C-285.95249015 1060.83769798 -285.9486772 1056.43155083 -285.94282397 1052.02531706 C-285.93865157 1047.23131919 -285.94605682 1042.43733683 -285.95197648 1037.64334273 C-285.9607413 1029.24129917 -285.96204958 1020.83927997 -285.95847321 1012.43723297 C-285.95316897 999.94295241 -285.95925872 987.44869547 -285.96755614 974.95441747 C-285.98280576 951.34189388 -285.98450021 927.72938099 -285.98203311 904.11685351 C-285.98020121 885.88398978 -285.9819579 867.65112958 -285.98625755 849.4182663 C-285.98685995 846.79973993 -285.98746115 844.18121357 -285.98806116 841.5626872 C-285.9889684 837.61692014 -285.98987707 833.67115307 -285.99079351 829.725386 C-285.99922457 793.03378298 -286.00357638 756.34218139 -285.99938679 719.65057755 C-285.99930873 718.95901937 -285.99923067 718.26746119 -285.99915025 717.5549467 C-285.99827746 709.84346075 -285.9973482 702.13197481 -285.99639962 694.42048886 C-285.99631411 693.72426472 -285.9962286 693.02804057 -285.9961405 692.31071872 C-285.99542973 686.52593135 -285.99542973 686.52593135 -285.99509827 683.86396862 C-285.98956282 639.33378342 -285.99710385 594.80361895 -286.01586914 550.2734375 C-286.02059143 539.05352915 -286.02527197 527.83362078 -286.029706 516.61371231 C-286.02997932 515.92284103 -286.03025265 515.23196976 -286.03053425 514.52016299 C-286.0389067 493.22406284 -286.04358532 471.92796442 -286.04441357 450.63186264 C-286.04443993 449.96316943 -286.0444663 449.29447621 -286.04449346 448.60551957 C-286.04505853 433.26689278 -286.04454617 417.92826618 -286.04329365 402.58963943 C-286.0428983 397.34159708 -286.04253676 392.09355474 -286.04219627 386.84551239 C-286.04210554 385.55329247 -286.04201481 384.26107254 -286.04192133 382.92969444 C-286.04075487 363.41386098 -286.04740736 343.8980401 -286.05800819 324.38220978 C-286.07005088 302.18920426 -286.07162991 279.99622646 -286.05921803 257.80322054 C-286.05258222 245.38186772 -286.05423713 232.96058116 -286.06780654 220.53923363 C-286.07604026 212.24199194 -286.07336749 203.94479998 -286.06183127 195.64756235 C-286.05556421 190.92017952 -286.05400157 186.19292613 -286.06569461 181.46555069 C-286.07624694 177.15971066 -286.07284087 172.85410954 -286.05859008 168.54828222 C-286.0558753 167.00533511 -286.05811428 165.46236866 -286.06609723 163.91943981 C-286.17955075 140.3726896 -279.71376238 121.39365298 -263.35546875 104.45800781 C-243.12074523 85.56742212 -220.60705537 83.5396728 -194.31640625 83.66894531 C-192.07054267 83.67268203 -189.82467745 83.67552589 -187.57881165 83.67752075 C-181.70825589 83.68510532 -175.83780132 83.70470859 -169.96728516 83.72692871 C-163.9606259 83.74749946 -157.95395006 83.75654634 -151.94726562 83.76660156 C-140.19136214 83.78795998 -128.43553328 83.82203242 -116.6796875 83.86425781 C-116.68852463 82.66117729 -116.68852463 82.66117729 -116.69754028 81.43379211 C-116.72108573 77.76088472 -116.73561193 74.08799329 -116.75 70.41503906 C-116.7641394 68.5225946 -116.7641394 68.5225946 -116.77856445 66.59191895 C-116.84913982 42.55316624 -109.97589076 24.64793463 -93.4296875 7.11425781 C-68.41438921 -16.86592469 -28.62757535 -19.35690124 0 0 Z M-232.9296875 143.36425781 C-236.18678123 148.01724886 -236.92972326 151.77727357 -236.93038583 157.42525744 C-236.93319046 158.07495835 -236.9359951 158.72465926 -236.93888472 159.39404808 C-236.94586307 161.57855291 -236.9385617 163.76277626 -236.93136978 165.94727707 C-236.93345555 167.53301946 -236.93641767 169.1187609 -236.94017851 170.7045002 C-236.94799941 175.08415005 -236.94328955 179.46371225 -236.93662261 183.84336075 C-236.9315668 188.59977388 -236.93806204 193.35617316 -236.94310927 198.11258435 C-236.95034825 206.45624553 -236.95010396 214.79988086 -236.94501495 223.14354324 C-236.93746793 235.55081961 -236.94130815 247.95807406 -236.94743157 260.36535027 C-236.95797922 282.52242122 -236.95704375 304.67948066 -236.95127374 326.83655271 C-236.94624839 346.22873626 -236.94492653 365.6209156 -236.94731903 385.01309967 C-236.9474718 386.29797966 -236.94762457 387.58285965 -236.94778197 388.9066754 C-236.94840462 394.12208478 -236.94904142 399.33749415 -236.9497015 404.55290352 C-236.95152485 419.13313503 -236.95267676 433.71336656 -236.95327377 448.29359818 C-236.95330106 448.95759906 -236.95332836 449.62159995 -236.95335647 450.30572207 C-236.95417525 471.46952555 -236.95192015 492.63332756 -236.94757462 513.79713058 C-236.94743412 514.48373485 -236.94729362 515.17033912 -236.94714886 515.87774958 C-236.94485889 527.02818526 -236.94242 538.17862092 -236.93996852 549.32905657 C-236.93025786 593.54457041 -236.9307044 637.76007215 -236.94042969 681.97558594 C-236.94287204 693.11559422 -236.94529413 704.2556025 -236.94757462 715.39561081 C-236.94771551 716.08152808 -236.94785641 716.76744535 -236.94800157 717.47414799 C-236.95231383 738.61201382 -236.9541425 759.74987864 -236.95327377 780.8877449 C-236.9532466 781.55131392 -236.95321944 782.21488294 -236.95319144 782.8985601 C-236.95253845 798.11845036 -236.95113095 813.33834049 -236.94920516 828.55823064 C-236.9485637 833.76553806 -236.94793802 838.97284547 -236.94731903 844.18015289 C-236.94716088 845.46237723 -236.94700272 846.74460157 -236.94683977 848.06568119 C-236.94456299 867.44502164 -236.94722886 886.8243574 -236.95227814 906.2036972 C-236.95799039 928.23776236 -236.95658049 950.27181417 -236.94571665 972.30587766 C-236.93983443 984.64381441 -236.9394746 996.9817223 -236.947009 1009.31965832 C-236.95148423 1017.5550928 -236.94871992 1025.79050407 -236.93999946 1034.0259351 C-236.93522961 1038.722185 -236.93364071 1043.4183774 -236.94081143 1048.11462554 C-236.94726766 1052.38640313 -236.94453349 1056.65807218 -236.9344501 1060.92984185 C-236.93243474 1062.46609332 -236.93377076 1064.00235376 -236.93886198 1065.53859812 C-237.47065673 1080.01778796 -237.47065673 1080.01778796 -231.1796875 1092.42675781 C-230.57125 1093.08804688 -229.9628125 1093.74933594 -229.3359375 1094.43066406 C-227.7927397 1096.08240954 -227.7927397 1096.08240954 -225.6796875 1095.86425781 C-225.1846875 1097.34925781 -225.1846875 1097.34925781 -224.6796875 1098.86425781 C-217.9395802 1101.26971123 -211.2955637 1101.14562195 -204.20485592 1101.11873341 C-202.32765844 1101.12354312 -202.32765844 1101.12354312 -200.41253778 1101.12845001 C-196.93991358 1101.13705913 -193.46739766 1101.13324811 -189.99477183 1101.12739428 C-186.21640798 1101.12322144 -182.43806381 1101.13062736 -178.65970474 1101.13654679 C-172.03798525 1101.14531101 -165.41629668 1101.14662011 -158.79457283 1101.14304352 C-148.94794625 1101.13773906 -139.10134964 1101.14382917 -129.25472632 1101.15212645 C-110.64720759 1101.16737484 -92.03970246 1101.16907072 -73.43217879 1101.16660342 C-59.06648424 1101.16477167 -44.70079416 1101.1665279 -30.33510017 1101.17082787 C-28.27213426 1101.17143026 -26.20916835 1101.17203146 -24.14620243 1101.17263147 C-21.03764083 1101.17353871 -17.92907923 1101.17444737 -14.82051763 1101.17536382 C14.08408212 1101.18379444 42.98868018 1101.18812822 71.89328098 1101.1839571 C73.52807602 1101.18372254 73.52807602 1101.18372254 75.19589721 1101.18348323 C80.71993168 1101.18267743 86.24396615 1101.18183166 91.76800061 1101.18096993 C92.86512004 1101.18079884 93.96223948 1101.18062776 95.09260495 1101.18045148 C97.31124604 1101.18010483 99.52988713 1101.1797563 101.74852822 1101.1794059 C136.2828017 1101.1740468 170.81704965 1101.18198402 205.35131836 1101.20043945 C244.13747148 1101.22114278 282.9236088 1101.23188548 321.70976776 1101.22786397 C325.84302548 1101.22746861 329.97628321 1101.22710706 334.10954094 1101.22676659 C335.12727888 1101.22667585 336.14501682 1101.22658512 337.1935953 1101.22649164 C352.57417986 1101.22532444 367.95474848 1101.23198318 383.33532906 1101.24257851 C400.81991245 1101.25461083 418.30446067 1101.2562121 435.78904457 1101.24378834 C445.57905023 1101.23714381 455.36897186 1101.23882743 465.15897087 1101.25237685 C471.69336732 1101.26059336 478.22770052 1101.25796043 484.76209179 1101.24640159 C488.48840394 1101.24011734 492.21455157 1101.23861558 495.9408545 1101.25026492 C499.95114317 1101.2626871 503.9610355 1101.25201554 507.97132206 1101.23898792 C509.71391213 1101.24995194 509.71391213 1101.24995194 511.49170604 1101.26113746 C517.55233842 1101.22005211 521.95918554 1100.76586473 527.3203125 1097.86425781 C527.3203125 1097.20425781 527.3203125 1096.54425781 527.3203125 1095.86425781 C527.8978125 1095.61675781 528.4753125 1095.36925781 529.0703125 1095.11425781 C533.34458293 1092.73966313 535.37808925 1090.30733624 536.91781104 1085.69064879 C538.94217829 1078.59759215 538.73418846 1071.447815 538.69783592 1064.14200211 C538.70096875 1062.54781726 538.70541504 1060.95363456 538.71104902 1059.3594566 C538.72272053 1054.97966396 538.715747 1050.60006999 538.70571516 1046.22028062 C538.69810262 1041.45509985 538.70788576 1036.68994945 538.71544516 1031.92477298 C538.72628227 1023.57356177 538.72595027 1015.22240873 538.71830368 1006.87119484 C538.70696404 994.45293845 538.71275334 982.0347312 538.7219286 969.61647515 C538.73773387 947.43963084 538.73635358 925.26281245 538.72769186 903.08596567 C538.72014993 883.68131839 538.7181729 864.27668061 538.7217598 844.87203217 C538.72198895 843.58567415 538.72221811 842.29931614 538.72245421 840.97397758 C538.72338819 835.75248412 538.72434339 830.53099067 538.7253335 825.30949723 C538.72806824 810.71359857 538.72979631 796.11769987 538.73069191 781.52180099 C538.73075332 780.52482353 538.73075332 780.52482353 538.73081596 779.50770511 C538.73204375 758.32984869 538.72866329 737.15199556 538.72214317 715.97414017 C538.72193243 715.28727083 538.72172168 714.60040149 538.72150455 713.89271793 C538.71806968 702.73831369 538.7144113 691.58390951 538.71073402 680.42950534 C538.69616162 636.17939419 538.69684424 591.92931026 538.71142578 547.67919922 C538.71508929 536.52566658 538.71872242 525.37213394 538.72214317 514.21860123 C538.72235452 513.53185582 538.72256586 512.84511041 538.72278361 512.13755453 C538.72925077 490.97821661 538.73199527 469.81888096 538.73069191 448.65954208 C538.73065116 447.99543213 538.7306104 447.33132217 538.73056842 446.64708767 C538.729589 431.41595853 538.72747787 416.18482967 538.72458899 400.95370078 C538.72362681 395.74287399 538.72268829 390.5320472 538.7217598 385.3212204 C538.72152256 384.03814314 538.72128533 382.75506589 538.72104091 381.4331075 C538.71762478 362.03540029 538.72162615 342.63770362 538.72919846 323.23999786 C538.73776205 301.19278668 538.73566193 279.14560549 538.71935622 257.09839806 C538.71052615 244.75090543 538.71000285 232.40347772 538.72129475 220.05598673 C538.72799924 211.81818603 538.72387644 203.58043762 538.71078044 195.3426447 C538.70361409 190.64265252 538.70126591 185.94278976 538.71199839 181.24280146 C538.72165369 176.97117557 538.71762415 172.69979449 538.70245641 168.42818662 C538.69942303 166.88865584 538.70146433 165.34910501 538.70907422 163.80959005 C538.71865417 161.72433386 538.70982391 159.63993365 538.69635999 157.5547173 C538.69615671 156.39864258 538.69595344 155.24256786 538.695744 154.05146058 C538.27116842 150.44705215 537.11133735 147.99609671 535.3203125 144.86425781 C534.6603125 144.86425781 534.0003125 144.86425781 533.3203125 144.86425781 C533.1346875 143.93613281 533.1346875 143.93613281 532.9453125 142.98925781 C532.44833894 140.6730495 532.44833894 140.6730495 530.3203125 138.86425781 C529.3303125 138.86425781 528.3403125 138.86425781 527.3203125 138.86425781 C527.0315625 138.22488281 526.7428125 137.58550781 526.4453125 136.92675781 C525.49207799 134.71219702 525.49207799 134.71219702 523.3203125 133.86425781 C521.88848427 133.77235944 520.45244302 133.74232323 519.01766968 133.7440033 C518.11460587 133.74262863 517.21154205 133.74125397 516.28111267 133.73983765 C514.79110497 133.74523056 514.79110497 133.74523056 513.27099609 133.75073242 C511.70510994 133.75051338 511.70510994 133.75051338 510.10758972 133.75028992 C506.64462227 133.75098859 503.1817081 133.75877891 499.71875 133.76660156 C497.32264231 133.7684659 494.92653423 133.76988973 492.53042603 133.77088928 C486.21422275 133.7747132 479.89804236 133.78454244 473.58184814 133.79559326 C467.14050608 133.80581007 460.69916033 133.81038748 454.2578125 133.81542969 C441.61196939 133.8261648 428.96614216 133.84304836 416.3203125 133.86425781 C416.30049316 134.8470874 416.28067383 135.82991699 416.26025391 136.8425293 C416.18354816 140.5273379 416.09493738 144.21178461 416.00292969 147.89624023 C415.96490593 149.48373207 415.93000929 151.07130229 415.8984375 152.65893555 C415.55347861 169.79369038 412.69735579 189.87683929 399.609375 202.51660156 C397.97470118 203.91476174 397.97470118 203.91476174 398.3203125 206.86425781 C397.7015625 207.11175781 397.0828125 207.35925781 396.4453125 207.61425781 C394.17029722 208.68821992 394.17029722 208.68821992 393.3203125 210.92675781 C392.9903125 211.56613281 392.6603125 212.20550781 392.3203125 212.86425781 C391.72605469 213.01121094 391.13179687 213.15816406 390.51953125 213.30957031 C387.90129058 213.96994363 386.31985937 215.1031995 384.1328125 216.67675781 C377.41053602 221.26811658 370.49788885 223.98159772 362.6796875 226.15332031 C360.30530377 226.7961079 360.30530377 226.7961079 358.17578125 227.93457031 C353.78276919 229.36485331 349.47137424 229.15231085 344.8828125 229.11425781 C343.4896582 229.12585938 343.4896582 229.12585938 342.06835938 229.13769531 C337.03908732 229.1233771 333.04200871 228.74525874 328.3203125 226.86425781 C326.94435979 226.44557139 325.56512009 226.03760675 324.18359375 225.63769531 C315.49514346 223.00457262 308.53086766 220.37305378 301.484375 214.50097656 C299.31839135 212.86280482 297.91379664 212.43995429 295.3203125 211.86425781 C294.62093718 210.54778663 293.95302117 209.2140363 293.3203125 207.86425781 C292.3303125 207.53425781 291.3403125 207.20425781 290.3203125 206.86425781 C289.95918116 205.53818352 289.63073668 204.2031102 289.3203125 202.86425781 C288.30369875 201.39394867 287.23429375 199.95961134 286.1328125 198.55175781 C280.15697769 190.2642832 277.02953331 180.64821244 274.3203125 170.86425781 C273.9903125 169.87425781 273.6603125 168.88425781 273.3203125 167.86425781 C273.16710157 165.28116887 273.06316841 162.7191552 273.00390625 160.13378906 C272.98525513 159.4684314 272.966604 158.80307373 272.9473877 158.11755371 C272.87920486 155.6374206 272.81898288 153.15707379 272.7578125 150.67675781 C272.6134375 145.12863281 272.4690625 139.58050781 272.3203125 133.86425781 C256.1503125 133.86425781 239.9803125 133.86425781 223.3203125 133.86425781 C223.03161858 143.5119502 223.03161858 143.5119502 222.75219727 153.15991211 C222.71408936 154.36558838 222.67598145 155.57126465 222.63671875 156.81347656 C222.60006104 158.04412842 222.56340332 159.27478027 222.52563477 160.54272461 C222.28352378 164.45939514 221.67295037 167.85336258 220.3828125 171.55175781 C219.28138295 174.60860024 219.28138295 174.60860024 219.09765625 176.87207031 C217.4816312 190.3010109 207.23130232 204.20830916 197.12890625 212.70800781 C179.4522283 225.98735731 159.92951575 230.30481796 138.2421875 228.62597656 C131.10758996 227.45656405 124.7205167 224.09652174 118.3203125 220.86425781 C117.47984375 220.44917969 116.639375 220.03410156 115.7734375 219.60644531 C110.8784842 217.05769377 106.95489057 214.01499945 102.94921875 210.21972656 C101.41727286 208.65104438 101.41727286 208.65104438 99.3203125 208.86425781 C98.6603125 207.54425781 98.0003125 206.22425781 97.3203125 204.86425781 C96.6603125 204.86425781 96.0003125 204.86425781 95.3203125 204.86425781 C94.6603125 203.21425781 94.0003125 201.56425781 93.3203125 199.86425781 C92.6603125 199.86425781 92.0003125 199.86425781 91.3203125 199.86425781 C91.16175781 198.77757812 91.16175781 198.77757812 91 197.66894531 C90.26092896 194.61921539 89.10545214 192.6405256 87.4453125 189.98925781 C82.23235359 180.73844345 81.39598732 170.2624477 80.3203125 159.86425781 C79.9903125 159.53425781 79.6603125 159.20425781 79.3203125 158.86425781 C79.16244942 157.01251075 79.06923894 155.15516672 79.00390625 153.29785156 C78.96579834 152.2852124 78.92769043 151.27257324 78.88842773 150.22924805 C78.84532471 148.93317627 78.80222168 147.63710449 78.7578125 146.30175781 C78.6134375 142.19738281 78.4690625 138.09300781 78.3203125 133.86425781 C62.1503125 133.86425781 45.9803125 133.86425781 29.3203125 133.86425781 C29.03097493 145.00853436 29.03097493 145.00853436 28.75219727 156.15307617 C28.71408894 157.54509522 28.67562106 158.93710448 28.63671875 160.32910156 C28.62024292 161.05810669 28.60376709 161.78711182 28.58679199 162.53820801 C28.4343843 167.75018601 28.4343843 167.75018601 27.3203125 168.86425781 C27.25972656 169.54230469 27.19914062 170.22035156 27.13671875 170.91894531 C26.1884099 181.45246828 20.87641456 194.30815575 13.3203125 201.86425781 C13.3203125 202.85425781 13.3203125 203.84425781 13.3203125 204.86425781 C12.7634375 205.09113281 12.2065625 205.31800781 11.6328125 205.55175781 C8.65871662 207.23975817 6.60022385 209.33102298 4.3203125 211.86425781 C4.3203125 212.52425781 4.3203125 213.18425781 4.3203125 213.86425781 C3.753125 213.97253906 3.1859375 214.08082031 2.6015625 214.19238281 C-0.0193 214.96428067 -1.88672021 216.1314723 -4.1796875 217.61425781 C-9.03141398 220.61495303 -14.0079556 222.79729583 -19.30859375 224.88378906 C-21.59511806 225.65194202 -21.59511806 225.65194202 -22.6796875 226.86425781 C-24.7369792 227.18349273 -26.79582271 227.37587133 -28.8671875 227.58300781 C-30.6964408 227.68423825 -30.6964408 227.68423825 -31.6796875 228.86425781 C-35.06799559 229.11718007 -38.47056474 229.04949189 -41.8671875 229.05175781 C-42.81400391 229.06400391 -43.76082031 229.07625 -44.73632812 229.08886719 C-49.82953479 229.09952987 -53.88910806 228.77903349 -58.6796875 226.86425781 C-59.9790625 226.65800781 -61.2784375 226.45175781 -62.6171875 226.23925781 C-68.06746438 225.11385934 -72.65045583 222.40627538 -77.45092773 219.69580078 C-80.52001925 217.96866183 -83.25220899 216.64815801 -86.6796875 215.86425781 C-87.1128125 214.96707031 -87.1128125 214.96707031 -87.5546875 214.05175781 C-88.59194198 211.57916762 -88.59194198 211.57916762 -91.5546875 210.05175781 C-95.4612954 207.31713228 -96.44439094 205.0368114 -98.6796875 200.86425781 C-99.30359375 200.29449219 -99.9275 199.72472656 -100.5703125 199.13769531 C-103.40292761 196.0847657 -104.72256502 192.80455318 -106.3046875 188.98925781 C-106.60375 188.29445313 -106.9028125 187.59964844 -107.2109375 186.88378906 C-111.71815428 176.29382398 -111.71815428 176.29382398 -112.2421875 170.55175781 C-112.26983342 167.06782115 -112.26983342 167.06782115 -113.6796875 165.86425781 C-113.75533748 163.58416732 -113.76274962 161.30176027 -113.7421875 159.02050781 C-113.73650757 157.99407166 -113.73650757 157.99407166 -113.73071289 156.94689941 C-113.71429161 154.00765862 -113.68615035 151.06855437 -113.65917969 148.12939453 C-113.64118072 145.98893873 -113.62903225 143.84850504 -113.6171875 141.70800781 C-113.60558594 140.42087891 -113.59398437 139.13375 -113.58203125 137.80761719 C-113.34043435 134.97575428 -113.34043435 134.97575428 -114.6796875 133.86425781 C-116.01888503 133.75046231 -117.36391102 133.7041951 -118.70780945 133.68585205 C-120.00947304 133.6646656 -120.00947304 133.6646656 -121.33743286 133.64305115 C-122.29688812 133.63258255 -123.25634338 133.62211395 -124.24487305 133.61132812 C-125.75219246 133.58925041 -125.75219246 133.58925041 -127.28996277 133.56672668 C-130.6320624 133.51962102 -133.97419114 133.48036561 -137.31640625 133.44238281 C-138.45538675 133.42852287 -139.59436726 133.41466293 -140.76786232 133.400383 C-146.79823436 133.32702013 -152.82863877 133.25947085 -158.85913086 133.19677734 C-165.09264193 133.13093075 -171.32574715 133.04632074 -177.55896282 132.95720291 C-182.34669333 132.89206722 -187.13450114 132.84060268 -191.92243385 132.79286957 C-194.2201836 132.76761722 -196.51788307 132.73725606 -198.81549644 132.7016983 C-202.0328765 132.65323616 -205.24988954 132.62408097 -208.4675293 132.59960938 C-209.89153046 132.57176109 -209.89153046 132.57176109 -211.34429932 132.54335022 C-220.79821672 132.5128511 -226.61411251 136.34695227 -232.9296875 143.36425781 Z " fill="#010100" transform="translate(497.6796875,81.1357421875)"/>
<path d="M0 0 C1.88665768 1.11798383 3.79427584 2.18436155 5.71679688 3.23925781 C10.67257607 5.98371665 15.5067742 8.83906107 20.19335938 12.02441406 C25.00812747 15.26167668 30.00792402 18.06505832 35.10742188 20.82519531 C35.97044922 21.29763672 36.83347656 21.77007813 37.72265625 22.25683594 C41.27718096 24.19591483 44.8204883 26.08989281 48.47070312 27.84472656 C50.91992188 29.13769531 50.91992188 29.13769531 51.91992188 31.13769531 C53.89881148 31.86463435 55.89946745 32.53585782 57.91992188 33.13769531 C57.91992188 33.79769531 57.91992188 34.45769531 57.91992188 35.13769531 C58.58765625 35.38003906 59.25539063 35.62238281 59.94335938 35.87207031 C63.64646451 37.44661895 67.05821062 39.38724545 70.54492188 41.38769531 C71.98202346 42.20610365 73.41952448 43.02381098 74.85742188 43.84082031 C75.90349609 44.43540039 75.90349609 44.43540039 76.97070312 45.04199219 C79.47362592 46.44894578 82.00778462 47.79361665 84.54492188 49.13769531 C88.61865007 51.34052611 92.49273855 53.77933725 96.35742188 56.32519531 C103.72253534 61.16658402 111.41153375 65.36517654 119.15820312 69.55957031 C119.94404785 69.98560547 120.72989258 70.41164063 121.53955078 70.85058594 C123.16424213 71.72908571 124.79165162 72.60257247 126.42138672 73.47167969 C127.61755615 74.1184668 127.61755615 74.1184668 128.83789062 74.77832031 C129.55098389 75.16020508 130.26407715 75.54208984 130.9987793 75.93554688 C132.93966664 77.15005054 134.31697375 78.51860158 135.91992188 80.13769531 C138.02325079 80.85217174 138.02325079 80.85217174 139.91992188 81.13769531 C139.91992188 81.79769531 139.91992188 82.45769531 139.91992188 83.13769531 C141.20189453 83.50894531 141.20189453 83.50894531 142.50976562 83.88769531 C146.20835223 85.24342007 149.17119283 87.01100275 152.48242188 89.13769531 C156.23571517 91.54263236 159.74196269 93.58711252 163.91992188 95.13769531 C166.73242188 96.63769531 166.73242188 96.63769531 168.91992188 98.13769531 C168.91992188 98.79769531 168.91992188 99.45769531 168.91992188 100.13769531 C169.75523437 100.37617187 170.59054687 100.61464844 171.45117188 100.86035156 C175.45959325 102.33642565 178.81206811 104.31937563 182.41992188 106.57519531 C186.84306369 109.31396898 191.25571551 111.82124383 195.91992188 114.13769531 C197.95472127 115.34360139 199.97508947 116.57410192 201.98242188 117.82519531 C202.5404248 118.17114746 203.09842773 118.51709961 203.67333984 118.87353516 C206.54184689 120.65218635 209.40448154 122.44019172 212.26757812 124.22753906 C218.23090468 127.93062981 224.23217036 131.45568507 230.42382812 134.76269531 C232.73669384 136.03676219 234.95158124 137.39455721 237.16992188 138.82519531 C239.66882387 140.43273639 242.10392584 141.70815838 244.85742188 142.82519531 C247.91992188 144.13769531 247.91992188 144.13769531 248.91992188 146.13769531 C250.49126224 147.08993347 252.10374298 147.97474067 253.73242188 148.82519531 C259.02257465 151.62911441 264.16471916 154.62756638 269.29101562 157.71972656 C271.56957276 158.94872543 273.39334658 159.67777499 275.91992188 160.13769531 C275.91992188 160.79769531 275.91992188 161.45769531 275.91992188 162.13769531 C276.72429687 162.34394531 277.52867187 162.55019531 278.35742188 162.76269531 C281.322753 163.90720908 283.238265 164.92869218 285.79492188 166.70019531 C289.89485878 169.53650007 294.12260661 171.98334686 298.48242188 174.38769531 C305.04292665 178.00806424 311.40797371 181.86879287 317.69165039 185.95117188 C321.17630999 188.24041036 321.17630999 188.24041036 325.06542969 189.63574219 C325.98340332 189.88420898 325.98340332 189.88420898 326.91992188 190.13769531 C327.24992187 190.79769531 327.57992188 191.45769531 327.91992188 192.13769531 C328.57992188 192.30269531 329.23992187 192.46769531 329.91992188 192.63769531 C330.57992188 192.80269531 331.23992187 192.96769531 331.91992188 193.13769531 C332.24992187 193.79769531 332.57992188 194.45769531 332.91992188 195.13769531 C334.53353344 196.10996217 336.1871927 197.0162714 337.85742188 197.88769531 C341.70468559 199.92859137 345.46191636 202.04115505 349.16992188 204.32519531 C352.05101913 206.08510002 354.85358331 207.6195917 357.98242188 208.88769531 C360.91992188 210.13769531 360.91992188 210.13769531 361.91992188 212.13769531 C363.51390789 213.08761687 365.14660707 213.97302123 366.79492188 214.82519531 C379.44128767 221.60062146 388.89380216 227.24350049 393.91992188 241.13769531 C396.22965669 249.22176717 394.68153053 257.3539677 391.91992188 265.13769531 C389.73242188 267.95019531 389.73242188 267.95019531 386.91992188 270.13769531 C385.53949657 271.33982693 384.1648487 272.54861338 382.79492188 273.76269531 C382.13234375 274.33246094 381.46976563 274.90222656 380.78710938 275.48925781 C378.93109447 277.06489064 378.93109447 277.06489064 377.49023438 278.72363281 C375.47544855 280.53794244 373.44657865 281.14776048 370.91992188 282.13769531 C368.49926911 283.54582361 366.11199521 284.97647885 363.73242188 286.45019531 C359.4908407 289.04124593 355.28158748 291.54895335 350.79492188 293.70019531 C347.09073361 295.48592777 343.64874472 297.50682897 340.16992188 299.70019531 C334.17623161 303.45870893 328.02265288 306.84572003 321.79492188 310.20019531 C315.13610758 313.78790407 308.59742745 317.38829224 302.33398438 321.63769531 C300.30360654 322.89928931 298.31124366 323.96173984 296.16992188 325.01269531 C291.75158608 327.18317827 287.52650947 329.62614152 283.29492188 332.13769531 C282.57046875 332.56308594 281.84601563 332.98847656 281.09960938 333.42675781 C277.85168023 335.34491887 274.65067709 337.29041536 271.53320312 339.41503906 C269.13652241 340.9949138 267.62757729 341.48412332 264.91992188 342.13769531 C264.46085449 342.60014648 264.00178711 343.06259766 263.52880859 343.5390625 C261.87844979 345.17890309 260.42383058 346.09078418 258.36523438 347.15332031 C257.67365234 347.51417725 256.98207031 347.87503418 256.26953125 348.24682617 C255.53541016 348.62331299 254.80128906 348.9997998 254.04492188 349.38769531 C252.51615783 350.18564596 250.98751338 350.98382577 249.45898438 351.78222656 C247.94603203 352.56751478 246.43301353 353.35267555 244.91992188 354.13769531 C242.41503516 355.44140479 239.91627272 356.75506299 237.41992188 358.07519531 C235.85757813 358.89310547 235.85757813 358.89310547 234.26367188 359.72753906 C231.8044632 360.9220777 231.8044632 360.9220777 230.91992188 363.13769531 C229.32178054 363.79779717 227.72254395 364.45532352 226.11914062 365.10253906 C223.52977226 366.3213359 221.245675 367.81081326 218.85742188 369.38769531 C214.65373269 372.13048702 210.3671393 374.50703823 205.85742188 376.70019531 C200.69313566 379.21423794 195.7699161 381.91769895 190.90820312 384.97363281 C188.91992188 386.13769531 188.91992188 386.13769531 185.91992188 387.13769531 C185.46617187 387.61207031 185.01242187 388.08644531 184.54492188 388.57519531 C182.91992188 390.13769531 182.91992188 390.13769531 180.85351562 390.92675781 C176.79279935 392.60295228 173.12780438 394.83238409 169.35742188 397.07519531 C168.60267578 397.51798828 167.84792969 397.96078125 167.0703125 398.41699219 C162.83198334 400.91578737 162.83198334 400.91578737 158.83007812 403.76660156 C156.61818111 405.35428224 154.28100335 406.28741564 151.77148438 407.31591797 C148.65668299 408.69835751 145.8058373 410.52674883 142.91992188 412.32519531 C137.58356069 415.58915699 132.19110572 418.69644701 126.66992188 421.63769531 C126.03828125 421.97567139 125.40664063 422.31364746 124.75585938 422.66186523 C122.16529694 424.02961715 119.70522361 425.2092614 116.91992188 426.13769531 C116.91992188 426.79769531 116.91992188 427.45769531 116.91992188 428.13769531 C115.99179687 428.48832031 115.06367187 428.83894531 114.10742188 429.20019531 C110.74024879 430.63361036 107.79164471 432.44618267 104.73242188 434.45019531 C99.9288998 437.58235491 95.01346333 440.15586273 89.85742188 442.65332031 C86.10164176 444.55118793 82.54413092 446.70777143 78.97851562 448.93847656 C76.91992188 450.13769531 76.91992188 450.13769531 73.91992188 451.13769531 C73.46617187 451.61207031 73.01242187 452.08644531 72.54492188 452.57519531 C70.91992188 454.13769531 70.91992188 454.13769531 68.85351562 454.92675781 C64.79279935 456.60295228 61.12780438 458.83238409 57.35742188 461.07519531 C56.60267578 461.51798828 55.84792969 461.96078125 55.0703125 462.41699219 C50.83198334 464.91578737 50.83198334 464.91578737 46.83007812 467.76660156 C44.63541915 469.34190892 42.32378288 470.26424789 39.83398438 471.28466797 C36.36137834 472.83228091 33.16617408 474.85638599 29.91992188 476.82519531 C23.60172893 480.61151147 17.22024361 484.19708422 10.65429688 487.53686523 C7.60646952 489.11369258 5.26676161 490.64862287 2.91992188 493.13769531 C1.22278907 493.88835021 -0.47742411 494.63394914 -2.20117188 495.32128906 C-4.3792726 496.21822501 -4.3792726 496.21822501 -7.39257812 498.13769531 C-15.56245269 502.87914037 -24.68508006 504.70111335 -33.90820312 502.44628906 C-41.58911551 499.93845018 -46.80296135 496.58590071 -51.26757812 489.82519531 C-51.88654676 488.60341551 -52.49030206 487.37383133 -53.08007812 486.13769531 C-53.42178638 485.50726665 -53.76349463 484.87683798 -54.11555767 484.22730541 C-57.33957829 477.84298169 -57.63354951 472.30400946 -57.55004883 465.23461914 C-57.55221374 464.05856141 -57.55437864 462.88250368 -57.55660915 461.67080784 C-57.55847678 458.41736173 -57.54236612 455.16458894 -57.51847172 451.91124868 C-57.49688184 448.37376424 -57.49854768 444.8362761 -57.49713135 441.29873657 C-57.49060641 434.30946018 -57.46227854 427.32042847 -57.42695081 420.33124495 C-57.38590248 412.03093216 -57.36754278 403.73060886 -57.34930599 395.43022025 C-57.30417809 375.51323571 -57.21595442 355.59651216 -57.12042719 335.67971581 C-57.0794833 327.11183175 -57.04222571 318.5439335 -57.0053072 309.9760313 C-56.81896777 266.7318722 -56.58627722 223.48813813 -56.30235475 180.24450976 C-56.17106699 160.24038853 -56.05090819 140.23633055 -55.96117306 120.23197651 C-55.90725313 108.22530746 -55.84457174 96.21871106 -55.77358341 84.21213055 C-55.7338692 77.43926826 -55.69921898 70.66646835 -55.67678833 63.89352417 C-55.65628275 57.73862636 -55.62234763 51.58395699 -55.57751274 45.42918968 C-55.5638399 43.22182965 -55.5551556 41.01443178 -55.55201912 38.80703163 C-55.54712181 35.8242136 -55.52410629 32.84205775 -55.49658203 29.859375 C-55.49958596 29.01194953 -55.50258989 28.16452406 -55.50568485 27.29141903 C-55.369348 17.43221179 -52.49201655 8.69049665 -46.08007812 1.13769531 C-32.53645792 -11.71773281 -14.63938348 -8.69075182 0 0 Z " fill="#0B0000" transform="translate(517.080078125,491.8623046875)"/>
<path d="M0 0 C5.92562941 3.46072533 9.71874569 8.77878736 12.4375 15 C12.69756222 17.1693449 12.69756222 17.1693449 12.71165466 19.55851746 C12.72661736 20.92296997 12.72661736 20.92296997 12.74188232 22.31498718 C12.742547 23.30569717 12.74321167 24.29640717 12.74389648 25.31713867 C12.75222 26.36640533 12.76054352 27.415672 12.76911926 28.49673462 C12.79324176 31.97051696 12.80199522 35.44411149 12.80859375 38.91796875 C12.81755995 41.33449866 12.8266818 43.751028 12.83595276 46.16755676 C12.85245255 51.23745065 12.86014441 56.30727844 12.86303711 61.37719727 C12.86841488 67.86258529 12.90606665 74.34734868 12.95178127 80.83256054 C12.98158018 85.82640325 12.98876133 90.82009627 12.98976326 95.81402016 C12.99396163 98.20415412 13.0063804 100.59428868 13.02728081 102.98433495 C13.05424581 106.33531412 13.04935279 109.68485508 13.03686523 113.03588867 C13.05169952 114.01647751 13.06653381 114.99706635 13.08181763 116.00737 C12.99865794 123.87507389 10.55062112 129.40701435 5.41015625 135.33984375 C-2.23092655 141.73085165 -8.66868048 142.82670729 -18.5625 142 C-25.14095731 140.16665944 -29.92081548 136.12095374 -33.58351231 130.40724945 C-36.77770036 124.69350191 -37.12935209 119.85959695 -37.06420898 113.39648438 C-37.06961197 112.36453445 -37.07501495 111.33258453 -37.08058167 110.2693634 C-37.09303172 106.87719549 -37.07660193 103.48588247 -37.05859375 100.09375 C-37.05874882 97.72538204 -37.06023919 95.35701382 -37.06300354 92.98864746 C-37.06438588 88.03251891 -37.05185669 83.07668032 -37.02905273 78.12060547 C-37.00066907 71.77884051 -37.00340788 65.43755712 -37.01614285 59.09575653 C-37.02310931 54.2074576 -37.0152996 49.3192693 -37.00288582 44.4309845 C-36.99838075 42.09308802 -36.99802623 39.75517963 -37.00195122 37.4172821 C-37.00487284 34.14578041 -36.98831015 30.87493432 -36.96655273 27.60351562 C-36.97330521 26.16471794 -36.97330521 26.16471794 -36.98019409 24.69685364 C-36.88411837 15.96920236 -34.91942252 9.35692252 -28.5625 3 C-20.90498417 -4.20148511 -9.30526577 -4.13880202 0 0 Z " fill="#F1FAE9" transform="translate(660.5625,121)"/>
<path d="M0 0 C1.2890625 -0.00515625 2.578125 -0.0103125 3.90625 -0.015625 C9.52305712 0.39953031 12.87390187 2.1968753 17.125 5.8125 C17.88039063 6.43253906 18.63578125 7.05257812 19.4140625 7.69140625 C24.65202552 14.11624854 24.93938177 21.89749823 24.88818359 29.87524414 C24.89344055 30.89758652 24.89869751 31.91992889 24.90411377 32.97325134 C24.91723685 36.32737851 24.90860345 39.68102489 24.8984375 43.03515625 C24.90046028 45.3796752 24.90337342 47.72419353 24.90713501 50.06871033 C24.91154782 54.97173072 24.90516019 59.87458667 24.89111328 64.77758789 C24.87401278 71.05092726 24.88387499 77.32388177 24.90183067 83.59720707 C24.91268851 88.43487938 24.90921311 93.27246094 24.9014473 98.11013603 C24.89945132 100.42291752 24.90188331 102.73570734 24.90888596 105.04847908 C24.91653424 108.28392389 24.90484881 111.51875136 24.88818359 114.75415039 C24.89729263 116.1765654 24.89729263 116.1765654 24.90658569 117.62771606 C24.83455846 125.20459545 23.46056861 132.05415659 18.12890625 137.86328125 C12.1031118 142.99315423 5.88134617 144.95879036 -1.9609375 144.5390625 C-8.72765723 143.76869748 -12.75601696 141.99398304 -17.5 137.25 C-18.875 134.4375 -18.875 134.4375 -19.5 132.25 C-20.16 132.25 -20.82 132.25 -21.5 132.25 C-23.81064538 126.72726811 -23.79599909 121.67864325 -23.79052734 115.79760742 C-23.79724457 114.75780228 -23.80396179 113.71799713 -23.81088257 112.64668274 C-23.82984845 109.21622919 -23.83378612 105.78597144 -23.8359375 102.35546875 C-23.84236649 99.96421733 -23.84909493 97.57296669 -23.85610962 95.18171692 C-23.86807894 90.17084937 -23.8717908 85.16005075 -23.87060547 80.14916992 C-23.87040233 73.7401516 -23.8977017 67.33157693 -23.93214989 60.92266369 C-23.95442848 55.98372889 -23.9584427 51.04490069 -23.95738602 46.10592079 C-23.95974062 43.74371118 -23.96855616 41.38149857 -23.98405075 39.01933861 C-24.00372889 35.7094385 -23.99786471 32.40049289 -23.98583984 29.09057617 C-23.99707886 28.12248016 -24.00831787 27.15438416 -24.01989746 26.1569519 C-23.95197791 18.76966148 -22.20199807 12.8707983 -17.75390625 6.91015625 C-17.19574219 6.38292969 -16.63757813 5.85570313 -16.0625 5.3125 C-15.50691406 4.76722656 -14.95132813 4.22195312 -14.37890625 3.66015625 C-9.79879567 0.2226928 -5.62992552 -0.0225197 0 0 Z " fill="#F4FDEC" transform="translate(841.5,118.75)"/>
<path d="M0 0 C6.3470488 4.01547986 10.8672852 8.60532953 13.0625 15.9375 C13.49269663 19.48719547 13.49312339 23.00675035 13.48242188 26.5793457 C13.49089142 27.62744415 13.49936096 28.6755426 13.50808716 29.75540161 C13.5314188 33.20815281 13.53248009 36.66045729 13.53125 40.11328125 C13.53835451 42.52312904 13.54605394 44.93297514 13.55432129 47.34281921 C13.56775781 52.39062197 13.5693388 57.43826836 13.56347656 62.48608398 C13.55758533 68.93881098 13.58815325 75.39078433 13.62859344 81.84336567 C13.65450802 86.82010404 13.65734432 91.79666194 13.65370178 96.77345848 C13.65538989 99.15159179 13.6650024 101.52973371 13.68284607 103.90780067 C13.7051061 107.2415292 13.69529624 110.57374511 13.67773438 113.9074707 C13.69099762 114.87975113 13.70426086 115.85203156 13.71792603 116.85377502 C13.63366766 123.77537649 11.9794234 129.17892764 8.0625 134.9375 C2.48572662 140.34694845 -3.07456423 142.97572346 -10.875 143.1875 C-15.23369132 143.10837096 -18.83123799 142.36576505 -22.9375 140.9375 C-22.9375 140.2775 -22.9375 139.6175 -22.9375 138.9375 C-23.69546875 138.69902344 -24.4534375 138.46054687 -25.234375 138.21484375 C-28.38304102 136.72696255 -29.36308258 135.42386897 -31.1875 132.5 C-31.68765625 131.71753906 -32.1878125 130.93507812 -32.703125 130.12890625 C-34.55405058 126.84292761 -35.06442586 124.2417204 -35.08467102 120.53720093 C-35.09182632 119.63735474 -35.09898163 118.73750854 -35.10635376 117.81039429 C-35.10904266 116.82543976 -35.11173157 115.84048523 -35.11450195 114.82568359 C-35.12107315 113.78631653 -35.12764435 112.74694946 -35.13441467 111.67608643 C-35.15415717 108.2293694 -35.16581367 104.78269601 -35.17578125 101.3359375 C-35.17985678 100.15840534 -35.1839323 98.98087318 -35.18813133 97.76765823 C-35.2089981 91.53277003 -35.2232961 85.29790386 -35.23266602 79.06298828 C-35.24371967 72.63036911 -35.27810626 66.19809689 -35.31783772 59.7656002 C-35.34401735 54.81380583 -35.35235918 49.86209385 -35.35594749 44.91023636 C-35.36081148 42.53964526 -35.37242002 40.16905779 -35.39098549 37.79853439 C-35.41540013 34.4739737 -35.41440697 31.15030698 -35.4074707 27.82568359 C-35.42028076 26.85287445 -35.43309082 25.88006531 -35.44628906 24.8777771 C-35.39290786 17.8300654 -34.14917813 11.40129617 -29.21667957 6.08159447 C-21.20875906 -1.27237601 -10.47435295 -3.83266097 0 0 Z " fill="#F4FDEC" transform="translate(465.9375,120.0625)"/>
<path d="M0 0 C7.58720148 7.58720148 6.60253636 23.71985549 6.60637951 33.74721813 C6.62129575 35.36508126 6.63786271 36.98292987 6.65592975 38.60076088 C6.69961171 42.96540815 6.71897314 47.32984932 6.73333138 51.69467887 C6.74872935 55.42063593 6.7785591 59.14642308 6.80848937 62.87228752 C6.90289687 74.62690315 6.95393936 86.38148347 6.99081578 98.13640406 C6.99973926 100.91870148 7.00965085 103.70099345 7.01992539 106.48328617 C7.10952305 131.00186379 7.11614838 155.52014673 7.09289711 180.03885 C7.08329259 190.36532305 7.080053 200.69179647 7.07666657 211.01827309 C7.06819885 235.87350046 7.04914354 260.72871579 7.02824138 285.58393531 C7.01838162 297.36842692 7.00969677 309.15291932 7.00106924 320.93741188 C6.97135652 361.40448806 6.93886542 401.87156102 6.89822865 442.33862782 C6.89570607 444.85834425 6.89318437 447.37806069 6.89066355 449.89777712 C6.88878822 451.77159508 6.88878822 451.77159508 6.88687501 453.68326795 C6.88054572 460.00979255 6.87422809 466.33631717 6.86791992 472.6628418 C6.86666523 473.91819815 6.86541054 475.1735545 6.86411782 476.46695196 C6.82334764 517.36677787 6.79838945 558.26659309 6.78244061 599.1664357 C6.76544471 642.59222207 6.7339698 686.01797454 6.68605727 729.44373816 C6.68085909 734.20505784 6.67572166 738.96637758 6.6706295 743.72769737 C6.66873956 745.48576125 6.66873956 745.48576125 6.66681144 747.27934157 C6.64691608 766.1064652 6.64021582 784.9335712 6.638332 803.76070427 C6.63611809 822.63519718 6.6192199 841.50963247 6.58734892 860.38409898 C6.56886217 871.58587268 6.56142318 882.78752571 6.56989146 893.98931215 C6.57444952 901.47229048 6.56450019 908.9551594 6.54283187 916.43810749 C6.5309046 920.6983143 6.52518179 924.95827248 6.53716633 929.21848486 C6.54796114 933.10073697 6.54009267 936.98250651 6.51794063 940.86470636 C6.51095176 942.90283512 6.52332448 944.94100303 6.53671673 946.97909978 C6.44226057 957.9526647 4.25623986 967.86211655 0 978 C-0.66 977.67 -1.32 977.34 -2 977 C-1.42427146 972.50931741 -0.23114983 968.48837526 1.28125 964.24609375 C2.77474582 959.57891931 3.12549246 955.26510273 3.1276505 950.37192005 C3.12930128 949.71495313 3.13095206 949.05798622 3.13265286 948.38111121 C3.13697887 946.17190903 3.13417621 943.96277349 3.13142776 941.7535696 C3.13307735 940.14997623 3.1351636 938.54638325 3.13764787 936.94279096 C3.14322498 932.51357829 3.14254019 928.08438493 3.14087028 923.65516987 C3.14014054 918.84496201 3.14515892 914.03475965 3.1494453 909.22455412 C3.15703451 899.67391459 3.15921882 890.12328065 3.15977435 880.57263842 C3.16068708 869.13705991 3.16735192 857.70148659 3.17412117 846.2659103 C3.19019283 818.62410796 3.19608573 790.98230616 3.20086992 763.34049998 C3.20320465 750.2681046 3.20680716 737.19570965 3.2105653 724.12331461 C3.22320048 680.09001607 3.23401402 636.05671777 3.23740576 592.02341747 C3.237568 589.91863515 3.23773356 587.81385283 3.23790014 585.70907051 C3.23823394 581.48786881 3.23856442 577.26666711 3.2388947 573.04546541 C3.2392816 568.1034228 3.23967121 563.1613802 3.24006577 558.21933759 C3.24017818 556.80488273 3.2402896 555.39042787 3.24040002 553.97597301 C3.24394943 508.54893092 3.25902746 463.12190464 3.28233776 417.69486858 C3.29907976 385.05490095 3.31455461 352.41493631 3.31907272 319.77496433 C3.31916621 319.10368065 3.3192597 318.43239697 3.31935601 317.74077136 C3.32146567 302.34306597 3.32255234 286.94536069 3.32293582 271.54765517 C3.32310728 266.27934968 3.32332271 261.0110442 3.32357025 255.74273872 C3.32362602 254.445502 3.32368179 253.14826528 3.32373925 251.81171835 C3.3248908 230.91821583 3.33592168 210.02472965 3.35045731 189.13123265 C3.3648101 168.13782148 3.36806618 147.14443131 3.36001733 126.15101659 C3.35555536 113.67372254 3.35944438 101.19649617 3.37525584 88.719211 C3.3849888 80.38705903 3.38384369 72.0549546 3.37381961 63.7228031 C3.36841545 58.97375008 3.3677565 54.22482725 3.38032833 49.47578489 C3.39167749 45.152565 3.38913163 40.82958106 3.37566125 36.50636929 C3.37323235 34.95487432 3.37579322 33.40336111 3.38405773 31.85188625 C3.42411641 23.80029248 3.0180546 16.40205719 0.6431741 8.64396146 C-0.07655185 5.6853105 -0.10508524 3.03374487 0 0 Z " fill="#5A5F57" transform="translate(1079,211)"/>
<path d="M0 0 C248.49 0 496.98 0 753 0 C753.33 0.66 753.66 1.32 754 2 C746.76947767 2.95836524 739.6962903 3.14059981 732.40770721 3.12584114 C731.15568758 3.12729458 729.90366794 3.12874802 728.61370832 3.13024551 C725.14420303 3.13413058 721.67472567 3.1318143 718.20522086 3.12846755 C714.42844828 3.1259274 710.65167994 3.12919214 706.87490797 3.13171089 C700.25746817 3.13532136 693.64003653 3.13521374 687.02259636 3.13266373 C677.18224209 3.12888207 667.34189472 3.13081456 657.5015405 3.13387203 C639.92692351 3.13913928 622.35231015 3.13868078 604.77769281 3.13579312 C589.39793231 3.13327848 574.01817314 3.13262044 558.63841248 3.13381577 C557.10869328 3.13393034 557.10869328 3.13393034 555.54807067 3.13404724 C551.4084135 3.13435857 547.26875633 3.13467697 543.12909916 3.135007 C504.28868449 3.13806663 465.44827213 3.13529153 426.60785782 3.1299101 C392.09355111 3.12516443 357.57924808 3.12558905 323.06494141 3.13037109 C284.29597749 3.13572466 245.52701563 3.13784965 206.7580514 3.13475883 C202.62589677 3.13443811 198.49374215 3.13412527 194.36158752 3.13381577 C192.83540263 3.13369715 192.83540263 3.13369715 191.27838572 3.13357614 C175.90754935 3.13243822 160.53671446 3.13376976 145.1658783 3.13629532 C127.69016978 3.13915239 110.21446548 3.1384444 92.73875749 3.13301457 C82.95585972 3.1300753 73.17297105 3.12989093 63.39007351 3.13366075 C56.8578996 3.1359005 50.325733 3.13451231 43.79356017 3.13015598 C40.07021575 3.12777409 36.34688944 3.12697036 32.62354559 3.13056196 C28.61311287 3.13439108 24.60272461 3.13049676 20.59229279 3.12584114 C19.43610595 3.12818231 18.27991911 3.13052347 17.0886963 3.13293558 C10.97467098 3.11868827 5.06247992 2.80354776 -1 2 C-0.67 1.34 -0.34 0.68 0 0 Z " fill="#525151" transform="translate(272,1229)"/>
<path d="M0 0 C0.66 0.33 1.32 0.66 2 1 C1.12130925 5.90979782 -0.41308069 10.52582019 -1.96484375 15.2578125 C-4.77868771 25.43012386 -5.28825335 35.25246945 -5.25726891 45.74931431 C-5.25996577 47.33421012 -5.26353557 48.91910464 -5.26789337 50.50399676 C-5.27732189 54.85338126 -5.2743603 59.20268167 -5.26933783 63.55207022 C-5.26606504 68.28624429 -5.27435887 73.02040062 -5.28115618 77.75456899 C-5.2914563 86.05014111 -5.29429995 94.3456899 -5.29224396 102.64126778 C-5.28919401 114.97742833 -5.29751785 127.31356305 -5.30799321 139.64971858 C-5.32733818 162.96478249 -5.33296162 186.27983761 -5.33410732 209.5949086 C-5.33502633 227.60031146 -5.33914258 245.60571086 -5.34550858 263.61111259 C-5.34730366 268.79353871 -5.34908329 273.97596482 -5.35085833 279.15839094 C-5.35130043 280.44675217 -5.35174252 281.73511339 -5.35219802 283.06251587 C-5.36450704 319.30364304 -5.37241087 355.54476807 -5.37151146 391.78589725 C-5.3714799 393.16616557 -5.37144843 394.54643389 -5.37141704 395.9267022 C-5.37127028 402.15830004 -5.37109394 408.38989788 -5.37090927 414.62149572 C-5.37082703 417.40024056 -5.37074673 420.17898539 -5.37066665 422.95773023 C-5.37062586 424.34854129 -5.37058382 425.73935236 -5.37054053 427.13016343 C-5.36918028 471.10135643 -5.38381132 515.0725172 -5.41162109 559.04370117 C-5.41862338 570.12129997 -5.42556241 581.19889879 -5.43214989 592.27649784 C-5.43275851 593.29969481 -5.43275851 593.29969481 -5.43337943 594.34356242 C-5.44581385 615.37521511 -5.45334141 636.40686517 -5.45586586 657.43852139 C-5.45594576 658.09905807 -5.45602566 658.75959475 -5.45610799 659.4401477 C-5.4578913 674.59286427 -5.45827397 689.7455806 -5.45769465 704.89829725 C-5.45754539 710.08292385 -5.45744797 715.26755045 -5.45738602 720.45217705 C-5.45736271 721.72876612 -5.4573394 723.0053552 -5.45731538 724.32062879 C-5.45725385 744.86114415 -5.4700237 765.4016323 -5.48725055 785.94213957 C-5.50420728 806.58766436 -5.50618053 827.23314935 -5.4930319 847.87867726 C-5.48564302 860.14146813 -5.48929897 872.40413805 -5.50891658 884.66691609 C-5.52092055 892.86353369 -5.51832081 901.06006373 -5.50397559 909.25667732 C-5.4962162 913.92332046 -5.49465043 918.58972964 -5.51089029 923.25635625 C-5.52556898 927.51178248 -5.52143527 931.76678239 -5.50304256 936.02219041 C-5.49963347 937.54237718 -5.50274537 939.06259834 -5.51364497 940.58274985 C-5.5791862 950.38993559 -4.34407223 959.25161923 -1.95515624 968.7682493 C-0.88380391 973.15305221 -0.42228005 977.50900151 0 982 C-2.68599431 979.31400569 -3.05712659 976.83819053 -4.0625 973.1875 C-4.40410156 971.96417969 -4.74570313 970.74085938 -5.09765625 969.48046875 C-6.43811187 964.31013993 -7.12527865 959.75214832 -7.1276505 954.39345747 C-7.12930128 953.7388223 -7.13095206 953.08418713 -7.13265286 952.40971452 C-7.13697871 950.20845741 -7.13417627 948.00726717 -7.13142776 945.80600834 C-7.13307736 944.20813649 -7.13516361 942.61026505 -7.13764787 941.01239428 C-7.14322489 936.59905394 -7.14254021 932.18573296 -7.14087028 927.77239021 C-7.14014053 922.97935863 -7.14515896 918.18633257 -7.1494453 913.39330333 C-7.15703449 903.87673119 -7.15921882 894.36016466 -7.15977435 884.84358981 C-7.16068709 873.44868972 -7.16735198 862.05379483 -7.17412117 850.65889698 C-7.19019316 823.11457 -7.19608587 795.57024357 -7.20086992 768.02591275 C-7.20320473 754.99870014 -7.20680726 741.97148797 -7.2105653 728.9442757 C-7.22320082 685.06064642 -7.23401409 641.1770174 -7.23740576 597.29338635 C-7.237568 595.19572043 -7.23773356 593.09805451 -7.23790014 591.00038859 C-7.23823394 586.79347245 -7.23856442 582.5865563 -7.2388947 578.37964016 C-7.2392816 573.45434295 -7.23967121 568.52904573 -7.24006577 563.60374851 C-7.24017818 562.1940872 -7.2402896 560.78442588 -7.24040002 559.37476457 C-7.243949 514.10705554 -7.25902509 468.83936239 -7.28233776 423.57165942 C-7.29908135 391.04639725 -7.31455531 358.52113808 -7.31907272 325.99587154 C-7.31916621 325.32684273 -7.3192597 324.65781392 -7.31935601 323.96851151 C-7.32146575 308.62191879 -7.32255235 293.27532616 -7.32293582 277.92873329 C-7.32310728 272.67780459 -7.32332271 267.42687589 -7.32357025 262.17594719 C-7.32362602 260.88299476 -7.32368179 259.59004234 -7.32373925 258.25790953 C-7.3248905 237.43918862 -7.33591882 216.62048412 -7.35045731 195.80176875 C-7.36481522 174.88001624 -7.36806329 153.9582848 -7.36001733 133.03652871 C-7.35555769 120.6040908 -7.35943507 108.17172084 -7.37525584 95.73929184 C-7.38499694 87.43448698 -7.38383587 79.12972979 -7.37381961 70.82492537 C-7.36842133 66.09313206 -7.36773766 61.36146934 -7.38032833 56.62968678 C-7.39170064 52.31978674 -7.38910637 48.01012306 -7.37566125 43.70023104 C-7.37323793 42.15580072 -7.37577329 40.61135198 -7.38405773 39.06694197 C-7.45332072 25.23884531 -5.16470544 12.84622166 0 0 Z " fill="#858383" transform="translate(219,206)"/>
<path d="M0 0 C2.15177242 2.15177242 2.57922986 3.29369158 3.47265625 6.140625 C3.73240234 6.96433594 3.99214844 7.78804688 4.25976562 8.63671875 C4.52466797 9.49910156 4.78957031 10.36148438 5.0625 11.25 C5.33126953 12.09691406 5.60003906 12.94382812 5.87695312 13.81640625 C10.58711577 28.92181563 9 40.46684704 9 58 C42.66 58 76.32 58 111 58 C110.505 58.99 110.505 58.99 110 60 C76.01 60 42.02 60 7 60 C6.67 49.44 6.34 38.88 6 28 C4.55719229 20.78596145 2.92744266 14.08961049 0.8046875 7.1015625 C0 4 0 4 0 0 Z " fill="#5C5B5B" transform="translate(907,107)"/>
<path d="M0 0 C0.99 0.495 0.99 0.495 2 1 C1.05373728 6.23401567 -0.52710017 11.24601932 -2.0625 16.33203125 C-5.41571264 29.45147571 -4.545303 43.81378693 -5 57 C-38.66 57 -72.32 57 -107 57 C-107.33 56.34 -107.66 55.68 -108 55 C-74.67 55 -41.34 55 -7 55 C-7 45.76 -7 36.52 -7 27 C-5.67984878 17.42890368 -3.71317039 8.89653006 0 0 Z " fill="#5D5C5C" transform="translate(388,110)"/>
<path d="M0 0 C0.33 0 0.66 0 1 0 C4.66657902 21.89034972 4.66657902 21.89034972 4 33 C3.95214355 33.85045898 3.90428711 34.70091797 3.85498047 35.57714844 C3.03577025 49.36135225 1.25966419 62.58157656 -2 76 C-2.33 76 -2.66 76 -3 76 C-3.12222391 62.06104265 -2.8415478 48.18129939 -2.20043945 34.25683594 C-2.06068875 31.21051792 -1.92929807 28.1639158 -1.79882812 25.1171875 C-1.71142177 23.1458118 -1.62354865 21.17445673 -1.53515625 19.203125 C-1.49656998 18.30926086 -1.4579837 17.41539673 -1.41822815 16.4944458 C-1.15877113 10.96010363 -0.66447843 5.50081046 0 0 Z " fill="#E5F6D0" transform="translate(1262,774)"/>
<path d="M0 0 C3.9075684 3.29013876 5.46266309 6.98634085 7.125 11.6875 C7.37636719 12.35716797 7.62773438 13.02683594 7.88671875 13.71679688 C8.64574078 15.79715307 9.33700593 17.88716442 10 20 C10.20447754 20.63558838 10.40895508 21.27117676 10.61962891 21.92602539 C12.76012217 29.78301723 12.21453838 37.9933488 12.125 46.0625 C12.08375 51.321875 12.0425 56.58125 12 62 C27.18 62 42.36 62 58 62 C57.88232107 51.77000956 57.88232107 51.77000956 57.72973633 41.54052734 C57.67637441 32.24637384 58.60568515 24.03559178 61 15 C61.66 15.33 62.32 15.66 63 16 C62.34 21.61 61.68 27.22 61 33 C60.34 33 59.68 33 59 33 C59 43.23 59 53.46 59 64 C43.16 64 27.32 64 11 64 C10.95875 59.1325 10.9175 54.265 10.875 49.25 C10.53536649 33.65377599 8.41396248 19.67879171 0.76293945 5.84179688 C0 4 0 4 0 0 Z " fill="#858484" transform="translate(517,103)"/>
<path d="M0 0 C6.27 0 12.54 0 19 0 C19.04125 2.3925 19.0825 4.785 19.125 7.25 C19.14320801 7.99668945 19.16141602 8.74337891 19.18017578 9.51269531 C19.21090134 13.19778057 19.04115309 15.88201812 17 19 C16.443125 18.3709375 15.88625 17.741875 15.3125 17.09375 C10.82934158 12.06534259 6.27256862 7.18414542 1.43359375 2.49609375 C0 1 0 1 0 0 Z " fill="#E7F7D7" transform="translate(1220,0)"/>
<path d="M0 0 C0.66 0.99 1.32 1.98 2 3 C1.32667645 5.87305024 0.55052258 8.6215252 -0.3125 11.4375 C-4.01152646 24.52427275 -3.80077307 37.45256886 -4 51 C-19.84 51.33 -35.68 51.66 -52 52 C-52 40.45 -52 28.9 -52 17 C-51.67 17 -51.34 17 -51 17 C-51 27.89 -51 38.78 -51 50 C-35.82 50 -20.64 50 -5 50 C-5.0825 45.235625 -5.165 40.47125 -5.25 35.5625 C-5.4498296 10.89965921 -5.4498296 10.89965921 0 0 Z " fill="#828181" transform="translate(773,115)"/>
<path d="M0 0 C0.495 0.99 0.495 0.99 1 2 C-1.475 1.505 -1.475 1.505 -4 1 C-4 0.34 -4 -0.32 -4 -1 C-4.6703125 -1.12375 -5.340625 -1.2475 -6.03125 -1.375 C-10.22490145 -2.25787399 -14.34047715 -3.40987296 -18.47265625 -4.5390625 C-23.64921157 -5.94039263 -28.45884613 -7.12531606 -33.8359375 -7.1328125 C-34.73570312 -7.13410156 -35.63546875 -7.13539062 -36.5625 -7.13671875 C-37.490625 -7.13285156 -38.41875 -7.12898438 -39.375 -7.125 C-40.29539062 -7.12886719 -41.21578125 -7.13273437 -42.1640625 -7.13671875 C-46.19642795 -7.13095823 -50.0619136 -7.06540266 -54.0390625 -6.3671875 C-55.01617188 -6.24601562 -55.99328125 -6.12484375 -57 -6 C-57.66 -6.66 -58.32 -7.32 -59 -8 C-39.62398702 -13.7735438 -17.10148359 -10.65039014 0 0 Z " fill="#5F5F5F" transform="translate(881,79)"/>
<path d="M0 0 C1.56609009 0.00809692 1.56609009 0.00809692 3.16381836 0.01635742 C14.48127367 0.23754832 23.92347116 2.89278554 34.25 7.4375 C34.25 7.7675 34.25 8.0975 34.25 8.4375 C30.83333209 8.76814528 28.24603683 8.1857692 25.0625 7.0625 C16.64192722 4.09938498 8.52242322 3.10945243 -0.375 3.1875 C-1.26445312 3.17976563 -2.15390625 3.17203125 -3.0703125 3.1640625 C-8.65528817 3.1804889 -13.37394269 3.95646035 -18.75 5.4375 C-21.11540724 5.5911126 -23.37687574 5.53638018 -25.75 5.4375 C-18.13122373 0.35831582 -8.91542425 -0.08895897 0 0 Z " fill="#5F5F5F" transform="translate(454.75,68.5625)"/>
<path d="M0 0 C1.0415625 0.35964844 2.083125 0.71929687 3.15625 1.08984375 C5.78690255 2.02319396 8.39769061 2.99083671 11 4 C10.67 4.66 10.34 5.32 10 6 C4.91801628 5.45059635 0.50552201 3.78376722 -4.21875 1.9375 C-9.13255696 0.28116057 -13.82270523 -0.1197829 -18.984375 -0.02734375 C-20.08394531 -0.01509766 -21.18351563 -0.00285156 -22.31640625 0.00976562 C-24.62115296 0.04516276 -26.92584537 0.08427491 -29.23046875 0.12695312 C-30.32488281 0.13791016 -31.41929687 0.14886719 -32.546875 0.16015625 C-34.04492676 0.18541382 -34.04492676 0.18541382 -35.57324219 0.21118164 C-38 0 -38 0 -40 -2 C-27.44219716 -4.80530212 -12.08987289 -4.35162593 0 0 Z " fill="#646364" transform="translate(672,72)"/>
<path d="M0 0 C0 0.66 0 1.32 0 2 C-0.66 2 -1.32 2 -2 2 C-2.2165625 2.54140625 -2.433125 3.0828125 -2.65625 3.640625 C-4.46499997 6.81645344 -6.91723799 9.20728081 -9.5 11.75 C-9.99886719 12.25660156 -10.49773438 12.76320313 -11.01171875 13.28515625 C-14.74658861 17 -14.74658861 17 -17 17 C-17.309375 17.61875 -17.61875 18.2375 -17.9375 18.875 C-18.625 20.25 -19.3125 21.625 -20 23 C-20.99 22.67 -21.98 22.34 -23 22 C-21.91712005 20.6038149 -20.8336726 19.20806996 -19.75 17.8125 C-18.84507812 16.64654297 -18.84507812 16.64654297 -17.921875 15.45703125 C-17.28765625 14.64621094 -16.6534375 13.83539063 -16 13 C-15.36835937 12.1646875 -14.73671875 11.329375 -14.0859375 10.46875 C-11.87391056 7.85077055 -9.55875837 5.81447865 -6.875 3.6875 C-5.57175781 2.64142578 -5.57175781 2.64142578 -4.2421875 1.57421875 C-2 0 -2 0 0 0 Z " fill="#363636" transform="translate(802,81)"/>
<path d="M0 0 C0 3 0 3 -1.16162109 4.53393555 C-1.95947021 5.32731323 -1.95947021 5.32731323 -2.7734375 6.13671875 C-3.6396875 7.00200195 -3.6396875 7.00200195 -4.5234375 7.88476562 C-5.13445312 8.47966797 -5.74546875 9.07457031 -6.375 9.6875 C-7.27992188 10.59725586 -7.27992188 10.59725586 -8.203125 11.52539062 C-12.73310075 16 -12.73310075 16 -15 16 C-15.268125 16.639375 -15.53625 17.27875 -15.8125 17.9375 C-17 20 -17 20 -20 21 C-16.38225922 13.04097029 -8.03701209 3.60702503 0 0 Z " fill="#515151" transform="translate(414,81)"/>
<path d="M0 0 C4.1140535 3.42689055 5.47746615 7.0964224 7.1875 12 C7.44724609 12.7115625 7.70699219 13.423125 7.97460938 14.15625 C10.27467428 20.52748922 11.11188553 25.28686818 11 32 C8.26174816 29.26174816 8.04009346 26.75112693 7.125 23 C5.74545834 17.51203749 4.11857954 12.34099737 1.83203125 7.1484375 C0.91795217 4.78813942 0.43242885 2.48974185 0 0 Z " fill="#5A595A" transform="translate(517,103)"/>
<path d="M0 0 C0.66 0.33 1.32 0.66 2 1 C1.28367983 4.95083805 0.22101987 8.71971146 -0.9375 12.5625 C-2.80488653 18.99310015 -4.07752114 25.37271769 -5 32 C-5.33 32 -5.66 32 -6 32 C-6.82274704 21.32257175 -4.53485678 12.89759898 -1 3 C-0.67 2.01 -0.34 1.02 0 0 Z " fill="#5A5959" transform="translate(388,110)"/>
<path d="M0 0 C0.66 0.33 1.32 0.66 2 1 C1.31438614 4.83095579 0.26661895 8.42631011 -0.9375 12.125 C-2.78973873 18.03195769 -4.06865901 23.88501115 -5 30 C-5.33 30 -5.66 30 -6 30 C-6.7847623 19.3185132 -4.08054888 9.81537433 0 0 Z " fill="#5B5A5B" transform="translate(219,206)"/>
<path d="M0 0 C10.33259117 -0.36855102 20.05041186 2.98823064 29 8 C29 8.33 29 8.66 29 9 C23.57279094 8.51758142 19.01581289 6.98607175 13.93359375 5.0546875 C9.36755689 3.41310301 4.69836839 2.19958342 0 1 C0 0.67 0 0.34 0 0 Z " fill="#676666" transform="translate(1018,166)"/>
<path d="M0 0 C6.11299472 0.21449104 11.16904189 1.59021272 16.8125 3.8125 C17.78135132 4.1849585 17.78135132 4.1849585 18.76977539 4.56494141 C22.62103096 6.14075141 25.28269263 7.84463804 28 11 C25.525 10.505 25.525 10.505 23 10 C23 9.34 23 8.68 23 8 C22.35546875 7.88527344 21.7109375 7.77054687 21.046875 7.65234375 C17.0593725 6.79860924 13.16607042 5.69505662 9.25 4.5625 C8.47011719 4.34529297 7.69023438 4.12808594 6.88671875 3.90429688 C4.90574187 3.33067488 2.94993993 2.67159948 1 2 C0.67 1.34 0.34 0.68 0 0 Z " fill="#666565" transform="translate(854,70)"/>
<path d="M0 0 C2.475 0.495 2.475 0.495 5 1 C5 1.66 5 2.32 5 3 C5.67546875 3.09410156 6.3509375 3.18820312 7.046875 3.28515625 C10.71670837 4.17348893 13.90644708 5.7345078 17.25 7.4375 C17.88679688 7.75009766 18.52359375 8.06269531 19.1796875 8.38476562 C23.87326759 10.74653518 23.87326759 10.74653518 25 13 C20.15758753 12.36508486 16.24167578 10.3612863 11.9375 8.1875 C11.23044922 7.84396484 10.52339844 7.50042969 9.79492188 7.14648438 C5.90730851 5.20085252 2.89063396 3.34112237 0 0 Z " fill="#5E5D5D" transform="translate(241,1216)"/>
<path d="M0 0 C3.12278659 3.12278659 3.82704652 7.09530679 5.125 11.25 C5.40214844 12.09691406 5.67929687 12.94382812 5.96484375 13.81640625 C7.39318534 18.34066065 8.36112388 22.19548234 8 27 C6 26 6 26 5.22216797 23.93041992 C4.98127441 23.03943604 4.74038086 22.14845215 4.4921875 21.23046875 C4.22792969 20.25916016 3.96367188 19.28785156 3.69140625 18.28710938 C3.42199219 17.26423828 3.15257812 16.24136719 2.875 15.1875 C2.45927734 13.6705957 2.45927734 13.6705957 2.03515625 12.12304688 C0.90213861 7.90074223 0 4.40111842 0 0 Z " fill="#616060" transform="translate(907,107)"/>
<path d="M0 0 C4.46931902 7.83581905 5.23591486 18.13661241 6 27 C1.43446314 22.43446314 0.22074301 13.8863821 -0.2578125 7.62890625 C-0.2511648 5.07286689 -0.18725219 2.54871039 0 0 Z " fill="#5C5B5B" transform="translate(213,1161)"/>
<path d="M0 0 C0.33 0 0.66 0 1 0 C1.76963893 8.77388378 -1.00937485 15.89326967 -4 24 C-4.66 23.67 -5.32 23.34 -6 23 C-5.4276602 18.53574956 -4.22991021 14.55198341 -2.765625 10.32421875 C-1.64551286 6.92387832 -0.82327565 3.48308931 0 0 Z " fill="#555455" transform="translate(1083,1165)"/>
<path d="M0 0 C4.90410528 4.90410528 5.16377986 12.17491077 5.20654297 18.77905273 C5.17886938 22.18822541 5.10673687 25.59232662 5 29 C4.67 29 4.34 29 4 29 C3.81824219 27.38931641 3.81824219 27.38931641 3.6328125 25.74609375 C3.46384385 24.30986025 3.29455596 22.87366428 3.125 21.4375 C3.00705078 20.38079102 3.00705078 20.38079102 2.88671875 19.30273438 C2.33495917 14.697664 1.31212802 10.46123527 0 6 C-0.125 2.5625 -0.125 2.5625 0 0 Z " fill="#474646" transform="translate(1079,211)"/>
<path d="M0 0 C2 3 2 3 1.76806641 5.17651367 C1.54812012 5.99869385 1.32817383 6.82087402 1.1015625 7.66796875 C0.75351562 9.00698242 0.75351562 9.00698242 0.3984375 10.37304688 C0.14320313 11.30181641 -0.11203125 12.23058594 -0.375 13.1875 C-0.6225 14.12787109 -0.87 15.06824219 -1.125 16.03710938 C-1.73851703 18.36139503 -2.3638841 20.68181642 -3 23 C-3.33 23 -3.66 23 -4 23 C-4.67620721 14.67889465 -2.74493505 7.81816322 0 0 Z " fill="#5B5A5B" transform="translate(773,115)"/>
<path d="M0 0 C8.02386726 0.40799325 14.62364642 2.91036813 22 6 C22 6.33 22 6.66 22 7 C14.49675695 7.72612029 6.87082495 3.62340589 0 1 C0 0.67 0 0.34 0 0 Z " fill="#656465" transform="translate(467,70)"/>
<path d="M0 0 C-3.11308235 2.54571003 -6.23525994 4.13283929 -9.9375 5.6875 C-10.95714844 6.12449219 -11.97679687 6.56148437 -13.02734375 7.01171875 C-15.9085136 7.96958468 -17.99434869 8.20480497 -21 8 C-17.88691765 5.45428997 -14.76474006 3.86716071 -11.0625 2.3125 C-9.53302734 1.65701172 -9.53302734 1.65701172 -7.97265625 0.98828125 C-5.0914864 0.03041532 -3.00565131 -0.20480497 0 0 Z " fill="#686767" transform="translate(1047,1222)"/>
<path d="M0 0 C3.12629313 2.63810321 4.49648795 5.75902688 6.1875 9.4375 C6.71730469 10.57058594 7.24710938 11.70367187 7.79296875 12.87109375 C9 16 9 16 9 20 C8.34 20 7.68 20 7 20 C6.5875 18.845 6.175 17.69 5.75 16.5 C4.37019497 12.776507 2.68610697 9.33361712 0.76953125 5.859375 C0 4 0 4 0 0 Z " fill="#636262" transform="translate(711,104)"/>
<path d="M0 0 C-3.84344382 2.24538034 -7.9638019 3.1026736 -12.25 4.125 C-12.99507813 4.30675781 -13.74015625 4.48851562 -14.5078125 4.67578125 C-16.3375026 5.12147499 -18.16861575 5.56131959 -20 6 C-20.33 5.34 -20.66 4.68 -21 4 C-7.55125285 -0.59225513 -7.55125285 -0.59225513 0 0 Z " fill="#686767" transform="translate(280,166)"/>
<path d="M0 0 C0.66 0.33 1.32 0.66 2 1 C1.34 6.61 0.68 12.22 0 18 C-0.66 18 -1.32 18 -2 18 C-2.20190089 11.64012196 -1.6277833 6.14778871 0 0 Z " fill="#4B4A4A" transform="translate(578,118)"/>
<path d="M0 0 C2.125 0.375 2.125 0.375 4 1 C2.40012144 2.31772362 0.79494034 3.62901137 -0.8125 4.9375 C-1.70582031 5.66839844 -2.59914063 6.39929687 -3.51953125 7.15234375 C-6 9 -6 9 -9 10 C-9 9.01 -9 8.02 -9 7 C-7.824375 6.87625 -7.824375 6.87625 -6.625 6.75 C-3.87359896 6.28389075 -3.87359896 6.28389075 -2.8125 4.0625 C-2.544375 3.381875 -2.27625 2.70125 -2 2 C-1.34 1.34 -0.68 0.68 0 0 Z " fill="#747272" transform="translate(1060,1210)"/>
<path d="M0 0 C4.00972202 3.67557852 6.45335415 7.18966896 9 12 C8.01 12 7.02 12 6 12 C4.59886384 10.04690112 3.26660533 8.04291182 2 6 C1.34 5.34 0.68 4.68 0 4 C0 2.68 0 1.36 0 0 Z " fill="#676666" transform="translate(898,95)"/>
<path d="M0 0 C-1.4859916 4.59306496 -3.85014682 7.43569245 -7 11 C-7.67578125 9.234375 -7.67578125 9.234375 -8 7 C-6.85546875 5.078125 -6.85546875 5.078125 -5.1875 3.25 C-4.64480469 2.63640625 -4.10210938 2.0228125 -3.54296875 1.390625 C-2 0 -2 0 0 0 Z " fill="#6B6A6A" transform="translate(1072,1199)"/>
<path d="M0 0 C0.66 0.33 1.32 0.66 2 1 C1.36191406 1.61488281 0.72382812 2.22976562 0.06640625 2.86328125 C-1.17302734 4.07564453 -1.17302734 4.07564453 -2.4375 5.3125 C-3.26121094 6.11300781 -4.08492187 6.91351563 -4.93359375 7.73828125 C-7.19403477 9.90470808 -7.19403477 9.90470808 -8 13 C-8.66 13 -9.32 13 -10 13 C-8.04643572 7.30210418 -4.98086349 3.37987165 0 0 Z " fill="#C1C9BC" transform="translate(636,121)"/>
<path d="M0 0 C0.33 0.99 0.66 1.98 1 3 C-1.31 5.31 -3.62 7.62 -6 10 C-6.99 9.67 -7.98 9.34 -9 9 C-6.03 6.03 -3.06 3.06 0 0 Z " fill="#767575" transform="translate(601,85)"/>
<path d="M0 0 C4.97306516 0.49730652 8.63799813 1.55302334 13 4 C13 4.33 13 4.66 13 5 C8.02693484 4.50269348 4.36200187 3.44697666 0 1 C0 0.67 0 0.34 0 0 Z " fill="#605F5F" transform="translate(1034,170)"/>
<path d="M0 0 C3.45854519 3.45854519 4 7.21904213 4 12 C3.34 12 2.68 12 2 12 C0.40861915 7.82262526 -0.21278058 4.46839215 0 0 Z " fill="#6A6969" transform="translate(1079,211)"/>
<path d="M0 0 C0.66 0.33 1.32 0.66 2 1 C-1.49087093 5.0042343 -3.64951939 6.62671065 -9 7 C-6.03716687 4.61327331 -3.05729491 2.2646629 0 0 Z " fill="#6E6C6C" transform="translate(611,78)"/>
<path d="M0 0 C0.99 0 1.98 0 3 0 C1.79157144 4.43090471 0.48331435 6.98112756 -3 10 C-3.33 9.34 -3.66 8.68 -4 8 C-3.34 8 -2.68 8 -2 8 C-1.855625 7.236875 -1.71125 6.47375 -1.5625 5.6875 C-1 3 -1 3 0 0 Z " fill="#646363" transform="translate(1075,1189)"/>
<path d="M0 0 C1.13643966 3.40931897 0.86747764 4.00335456 -0.4375 7.1875 C-0.72496094 7.90292969 -1.01242187 8.61835937 -1.30859375 9.35546875 C-1.53675781 9.89816406 -1.76492188 10.44085937 -2 11 C-2.66 10.67 -3.32 10.34 -4 10 C-3.125 4.25 -3.125 4.25 -2 2 C-1.34 2 -0.68 2 0 2 C0 1.34 0 0.68 0 0 Z " fill="#636262" transform="translate(1081,1178)"/>
<path d="M0 0 C2.33936818 2.12669835 3.80653848 4.06224856 5 7 C5 7.99 5 8.98 5 10 C2 9 2 9 0.8125 6.6875 C0 4 0 4 0 0 Z " fill="#5A5959" transform="translate(1074,201)"/>
<path d="M0 0 C0.33 0.99 0.66 1.98 1 3 C-0.9375 6.1875 -0.9375 6.1875 -3 9 C-3.99 8.67 -4.98 8.34 -6 8 C-4.02 5.36 -2.04 2.72 0 0 Z " fill="#696868" transform="translate(785,95)"/>
<path d="M0 0 C-1 2 -1 2 -2.625 2.625 C-5.7660575 3.12095645 -8.82601831 3.06103811 -12 3 C-7.78372195 0.18914797 -4.97048208 -0.11045516 0 0 Z " fill="#5F5F5F" transform="translate(441,71)"/>
<path d="M0 0 C0.6875 1.6875 0.6875 1.6875 1 4 C-0.25 6.6875 -0.25 6.6875 -2 9 C-2.99 9.33 -3.98 9.66 -5 10 C-3.66511872 6.40608886 -2.03977277 3.24509304 0 0 Z " fill="#727171" transform="translate(588,99)"/>
<path d="M0 0 C0.66 0.99 1.32 1.98 2 3 C1.01 4.98 0.02 6.96 -1 9 C-1.66 9 -2.32 9 -3 9 C-2.01 6.03 -1.02 3.06 0 0 Z " fill="#696868" transform="translate(582,109)"/>
<path d="M0 0 C3.26460973 1.80412643 4.88929795 2.83394693 7 6 C2.25 5.25 2.25 5.25 0 3 C0 2.01 0 1.02 0 0 Z " fill="#616060" transform="translate(502,86)"/>
<path d="M0 0 C3.93673644 1.31224548 6.22719294 2.91910327 9 6 C8.01 6 7.02 6 6 6 C6 5.34 6 4.68 6 4 C4.35 3.67 2.7 3.34 1 3 C0.67 2.01 0.34 1.02 0 0 Z " fill="#747373" transform="translate(489,77)"/>
<path d="M0 0 C2.475 0.495 2.475 0.495 5 1 C5 1.66 5 2.32 5 3 C5.99 3 6.98 3 8 3 C8.33 3.99 8.66 4.98 9 6 C5.06326356 4.68775452 2.77280706 3.08089673 0 0 Z " fill="#777575" transform="translate(241,1216)"/>
<path d="M0 0 C3.26460973 1.80412643 4.88929795 2.83394693 7 6 C4.03824877 5.38722388 2.61941217 4.74627478 0 3 C0 2.01 0 1.02 0 0 Z " fill="#646363" transform="translate(1056,181)"/>
<path d="M0 0 C3.82946843 1.45255699 5.12050295 3.42895561 7 7 C5.1875 6.875 5.1875 6.875 3 6 C1.25 2.9375 1.25 2.9375 0 0 Z " fill="#727171" transform="translate(891,88)"/>
<path d="M0 0 C0.66 0.33 1.32 0.66 2 1 C0.35 2.98 -1.3 4.96 -3 7 C-4.32 6.67 -5.64 6.34 -7 6 C-4.69 4.02 -2.38 2.04 0 0 Z " fill="#747373" transform="translate(796,84)"/>
<path d="M0 0 C0.66 0.33 1.32 0.66 2 1 C-0.36292656 3.52588702 -1.66462511 4.88820837 -5 6 C-5 5.01 -5 4.02 -5 3 C-2.625 1.25 -2.625 1.25 0 0 Z " fill="#6F6E6E" transform="translate(421,76)"/>
<path d="M0 0 C-1 3 -1 3 -2.875 4.25 C-5 5 -5 5 -8 4 C-2.25 0 -2.25 0 0 0 Z " fill="#727171" transform="translate(810,76)"/>
<path d="M0 0 C3.375 -0.125 3.375 -0.125 7 0 C7.66 0.66 8.32 1.32 9 2 C6.21176345 3.0326802 5.1322726 3.04509293 2.25 2.0625 C1.5075 1.711875 0.765 1.36125 0 1 C0 0.67 0 0.34 0 0 Z " fill="#3F3E3E" transform="translate(674,75)"/>
</svg>
