<?xml version="1.0" encoding="UTF-8"?>
<svg version="1.1" xmlns="http://www.w3.org/2000/svg" width="1280" height="1280">
<path d="M0 0 C422.4 0 844.8 0 1280 0 C1280 422.4 1280 844.8 1280 1280 C857.6 1280 435.2 1280 0 1280 C0 857.6 0 435.2 0 0 Z " fill="#77D12E" transform="translate(0,0)"/>
<path d="M0 0 C422.4 0 844.8 0 1280 0 C1280 422.4 1280 844.8 1280 1280 C857.6 1280 435.2 1280 0 1280 C0 857.6 0 435.2 0 0 Z M398 96 C384.95409064 112.67958624 381.6025593 131.3978082 381.875 152.25 C381.88506425 153.59244113 381.89418393 154.93488969 381.90234375 156.27734375 C381.92566088 159.51842489 381.95838448 162.75911102 382 166 C380.13649902 165.99000725 380.13649902 165.99000725 378.23535156 165.97981262 C366.4674476 165.91872028 354.69957626 165.87389319 342.93154907 165.84456348 C336.8830092 165.82897739 330.83459842 165.80786942 324.78613281 165.77368164 C318.93760935 165.74083481 313.08920925 165.72309407 307.24060059 165.71536827 C305.02093568 165.70986988 302.80127672 165.69913436 300.58166504 165.68280983 C274.27533841 165.49721421 252.15202748 169.45030124 232.6640625 188.25390625 C216.97395744 205.0561452 212.67768833 224.61459983 212.74273109 246.92669201 C212.74003433 248.53095275 212.73646458 250.13521223 212.73210663 251.73946932 C212.72267683 256.1426073 212.72564011 260.54566224 212.73066217 264.94880422 C212.73393461 269.74121865 212.72564143 274.53361555 212.71884382 279.32602435 C212.7085432 287.72379329 212.70570014 296.12153918 212.70775604 304.51931381 C212.71080584 317.00733225 212.70248253 329.49532518 212.69200679 341.98333866 C212.67266169 365.58469671 212.66703839 389.18604607 212.66589268 412.78741112 C212.66497373 431.01260616 212.66085776 449.23779778 212.65449142 467.46299171 C212.65269635 472.70835918 212.65091672 477.95372665 212.64914167 483.19909412 C212.64869957 484.50309198 212.64825748 485.80708983 212.64780198 487.15060278 C212.63549308 523.83113073 212.62758912 560.51165724 212.62848854 597.19218731 C212.6285201 598.58918482 212.62855157 599.98618232 212.62858296 601.38317983 C212.62872972 607.69033518 212.62890606 613.99749053 212.62909073 620.30464587 C212.62917297 623.11709633 212.62925327 625.92954679 212.62933335 628.74199725 C212.62937414 630.14967831 212.62941618 631.55735937 212.62945947 632.96504044 C212.63081988 677.47499822 212.61618575 721.98492418 212.58837891 766.49487305 C212.58137669 777.70928024 212.57443769 788.92368746 212.56785011 800.1380949 C212.56744436 800.82863935 212.56703862 801.5191838 212.56662057 802.23065383 C212.55418768 823.51902524 212.5466589 844.80739404 212.54413414 866.09576893 C212.54405424 866.76428795 212.54397434 867.43280698 212.54389201 868.12158415 C212.54210877 883.45676006 212.54172601 898.79193572 212.54230535 914.12711173 C212.54245461 919.37405097 212.54255203 924.62099022 212.54261398 929.86792946 C212.54263729 931.15986804 212.5426606 932.45180661 212.54268462 933.78289485 C212.54274617 954.57671965 212.52997255 975.37051759 212.51274945 996.16433441 C212.49579928 1017.06075093 212.49381434 1037.95712813 212.5069681 1058.85354771 C212.51436119 1071.26783994 212.51068844 1083.68201273 212.49108342 1096.09629231 C212.47909037 1104.39134372 212.48166703 1112.68630857 212.49602441 1120.981356 C212.50379299 1125.70585968 212.50532302 1130.4301321 212.48910971 1135.15461954 C212.47446364 1139.46020544 212.47852731 1143.76536929 212.49695744 1148.07093697 C212.50037508 1149.61152474 212.49722581 1151.1521463 212.48635503 1152.69269951 C212.33836426 1175.1878443 219.21802569 1194.2452727 234.56640625 1210.76171875 C250.7030675 1226.46550384 270.62227635 1231.16771337 292.57832623 1231.12863445 C294.45410871 1231.13126401 294.45410871 1231.13126401 296.36778578 1231.13394669 C299.83312301 1231.13865949 303.29843384 1231.13718061 306.76377234 1231.13466892 C310.53610268 1231.13303215 314.30842746 1231.13717974 318.08075601 1231.14057809 C324.6905433 1231.14572754 331.30032328 1231.14715008 337.91011238 1231.14612198 C347.73935703 1231.14459685 357.56859358 1231.14875926 367.39783665 1231.1539966 C385.9747936 1231.16366845 404.55174779 1231.16648078 423.12870695 1231.16705366 C437.47477009 1231.16751318 451.82083213 1231.16957137 466.16689491 1231.17275429 C470.29616318 1231.17365183 474.42543145 1231.17454164 478.55469972 1231.17542917 C480.09451655 1231.17576074 480.09451655 1231.17576074 481.6654408 1231.17609901 C510.54109865 1231.18225338 539.41675613 1231.18619955 568.29241467 1231.18575573 C569.38113547 1231.18574015 570.46985628 1231.18572457 571.59156863 1231.18570852 C577.10967654 1231.18562541 582.62778444 1231.18552637 588.14589234 1231.18542381 C589.24181106 1231.18540387 590.33772977 1231.18538392 591.46685814 1231.18536337 C593.68307302 1231.18532294 595.8992879 1231.18528114 598.11550278 1231.18523798 C632.59629318 1231.18462523 667.07707374 1231.19213178 701.55786133 1231.20581055 C740.295744 1231.22117179 779.03362022 1231.22977675 817.77150613 1231.22884732 C821.90234617 1231.22877269 826.03318622 1231.22872399 830.16402626 1231.22869301 C831.18114574 1231.22868135 832.19826522 1231.2286697 833.2462065 1231.22865769 C849.61266292 1231.22862692 865.9791108 1231.23501217 882.34556468 1231.24362527 C898.79495883 1231.25210297 915.24434049 1231.25309078 931.69373562 1231.24651595 C941.46448399 1231.24282111 951.23519442 1231.24465073 961.00593877 1231.25445829 C967.53639568 1231.26045919 974.06682511 1231.25916158 980.59728076 1231.25198779 C984.31555954 1231.24810725 988.0337649 1231.24732788 991.7520385 1231.25544515 C995.76557227 1231.26412998 999.77893355 1231.25720867 1003.79246807 1231.24888897 C1004.93551984 1231.25385715 1006.07857161 1231.25882533 1007.25626132 1231.26394406 C1020.02971748 1231.20804396 1031.46975351 1229.66315508 1043 1224 C1044.40572266 1223.31744141 1044.40572266 1223.31744141 1045.83984375 1222.62109375 C1063.07786993 1213.74822473 1074.97360868 1199.37578437 1081.01408765 1180.89789513 C1083.79009484 1171.36221888 1084.56902629 1162.41853393 1084.50336456 1152.50023651 C1084.50754706 1150.8824804 1084.5134794 1149.26472805 1084.52098203 1147.64698392 C1084.53646754 1143.22494767 1084.52728685 1138.80326371 1084.51387022 1134.38123361 C1084.50368248 1129.56148332 1084.51677922 1124.74178518 1084.52684355 1119.92204237 C1084.54126585 1111.48250532 1084.54086712 1103.04307069 1084.53065491 1094.60352898 C1084.51551023 1082.05354073 1084.52326759 1069.50363871 1084.53548814 1056.95365103 C1084.55654316 1034.53798743 1084.55472869 1012.12236946 1084.54317249 989.70670153 C1084.53310913 970.09034638 1084.53048399 950.47400796 1084.53526306 930.85765076 C1084.5355686 929.5563064 1084.53587414 928.25496205 1084.53618894 926.91418302 C1084.5374343 921.63156392 1084.5387079 916.34894483 1084.540028 911.06632575 C1084.54367405 896.29996223 1084.54597835 881.53359872 1084.54717255 866.7672348 C1084.54722713 866.09485496 1084.54728171 865.42247511 1084.54733795 864.72972012 C1084.54897464 843.31038349 1084.5444697 821.89105265 1084.53577423 800.47171783 C1084.53549323 799.77717957 1084.53521224 799.0826413 1084.53492273 798.36705643 C1084.53034314 787.08878199 1084.52546519 775.81050768 1084.52056203 764.53223339 C1084.50113725 719.80353669 1084.50203885 675.07488789 1084.52148438 630.34619141 C1084.52636929 619.07355504 1084.53121355 607.80091867 1084.53577423 596.52828217 C1084.53605602 595.83414944 1084.53633782 595.14001671 1084.53662815 594.42484966 C1084.54525513 573.02748741 1084.54890956 551.63012914 1084.54717255 530.2327652 C1084.54711821 529.56088145 1084.54706387 528.8889977 1084.54700789 528.19675384 C1084.5457018 512.78492995 1084.54288664 497.37310667 1084.53903532 481.96128321 C1084.53775246 476.68830522 1084.53650109 471.41532724 1084.53526306 466.14234924 C1084.53494675 464.84401349 1084.53463044 463.54567774 1084.53430455 462.20799848 C1084.52975521 442.60427039 1084.53507474 423.00056085 1084.54518127 403.39683533 C1084.5566159 381.10588683 1084.55376409 358.81499108 1084.5320583 336.52404916 C1084.52031186 324.04954296 1084.51954831 311.57515097 1084.534643 299.10064772 C1084.54361487 290.76686937 1084.53802604 282.43318256 1084.52062392 274.09941777 C1084.51111409 269.3520526 1084.50784416 264.60491428 1084.52224785 259.85755628 C1084.53523646 255.53243668 1084.52958371 251.20774369 1084.50952521 246.88265475 C1084.50552108 245.3338884 1084.50809591 243.78508614 1084.51834896 242.23634855 C1084.65089881 220.67151751 1077.81558189 202.35236019 1062.76171875 186.66796875 C1043.20234781 167.87688734 1020.17189908 165.68030615 994.296875 165.8046875 C992.00474166 165.80842332 989.71260671 165.8112676 987.42047119 165.81326294 C981.42331438 165.82085457 975.42625631 165.84046417 969.42913818 165.8626709 C963.29522029 165.88322617 957.16128625 165.89228526 951.02734375 165.90234375 C939.01818607 165.92371469 927.00910129 165.95779598 915 166 C915.01374664 164.61908928 915.01374664 164.61908928 915.027771 163.21028137 C915.05782038 159.75339288 915.07964652 156.29664576 915.09613037 152.8396759 C915.10486244 151.35122978 915.11675231 149.86279835 915.13201904 148.37440491 C915.23892886 137.67376539 914.66537825 128.20431087 911 118 C910.72285156 117.02160156 910.44570313 116.04320312 910.16015625 115.03515625 C907.76346517 107.16031414 903.13510443 101.33018327 898 95 C897.236875 93.948125 896.47375 92.89625 895.6875 91.8125 C882.30248829 77.8049296 864.50090019 70.14109822 845.2980957 69.47680664 C823.228609 69.19792842 806.51071611 75.43189199 790.3125 90.5 C789.549375 91.325 788.78625 92.15 788 93 C787.22269531 93.75216797 787.22269531 93.75216797 786.4296875 94.51953125 C771.46006943 109.92548348 768.65527358 130.57791185 768.75 151.0625 C768.87375 158.4565625 768.87375 158.4565625 769 166 C753.49 165.67 737.98 165.34 722 165 C721.625 149.25 721.625 149.25 721.52197266 144.36035156 C721.21173417 132.94750579 720.82508514 122.04531774 715.25 111.8125 C714.89147949 111.13106934 714.53295898 110.44963867 714.16357422 109.74755859 C704.0766938 90.8487362 689.82849689 78.22263697 669.375 71.875 C648.16183754 66.37529121 626.70136109 70.01959639 608 81 C604.80210289 83.14301872 601.8777986 85.4464604 599 88 C598.41089844 88.49628906 597.82179688 88.99257812 597.21484375 89.50390625 C584.32815269 101.21641133 576.82834134 118.85542475 575.74926758 135.97875977 C575.56442126 140.38038744 575.46728476 144.78298026 575.375 149.1875 C575.25125 154.405625 575.1275 159.62375 575 165 C559.82 165 544.64 165 529 165 C528.75 149.4375 528.75 149.4375 528.70214844 144.63061523 C528.18885215 122.79255986 521.00825113 103.42617392 505.109375 88.13671875 C488.08203355 73.13535776 468.16841054 68.29332109 445.99951172 69.69091797 C426.66880428 71.68283361 410.44494985 81.25398084 398 96 Z " fill="#FEFEFE" transform="translate(0,0)"/>
<path d="M0 0 C14.19178304 10.28049964 23.54403958 24.04121726 28.30419922 40.84814453 C28.5869873 41.77759888 28.5869873 41.77759888 28.87548828 42.72583008 C30.97754259 50.60853372 30.7613402 58.80925922 30.92919922 66.91064453 C31.05294922 72.17001953 31.17669922 77.42939453 31.30419922 82.84814453 C46.48419922 82.84814453 61.66419922 82.84814453 77.30419922 82.84814453 C77.5131528 72.61867495 77.5131528 72.61867495 77.69213867 62.38867188 C77.9992555 50.28483149 79.17089284 38.44568342 84.99169922 27.59814453 C85.51171509 26.59666382 85.51171509 26.59666382 86.04223633 25.57495117 C89.15145883 19.77242517 92.86481241 14.71335008 97.30419922 9.84814453 C97.83271484 9.22810547 98.36123047 8.60806641 98.90576172 7.96923828 C109.35686464 -3.53727158 126.52208456 -11.17416686 141.98535156 -12.35693359 C144.865845 -12.45513793 147.73460134 -12.4805631 150.61669922 -12.46435547 C151.63344727 -12.46016602 152.65019531 -12.45597656 153.69775391 -12.45166016 C160.9559258 -12.34235734 167.42736086 -11.57461852 174.30419922 -9.15185547 C175.62291016 -8.78640625 175.62291016 -8.78640625 176.96826172 -8.41357422 C195.84931238 -2.67308187 208.83203062 12.98480634 217.84326172 29.70361328 C223.68574956 41.54233864 223.65678854 54.16961131 223.92919922 67.09814453 C224.05294922 72.29564453 224.17669922 77.49314453 224.30419922 82.84814453 C247.56919922 83.34314453 247.56919922 83.34314453 271.30419922 83.84814453 C271.18044922 76.45408203 271.18044922 76.45408203 271.05419922 68.91064453 C270.95344052 47.12157624 274.78841358 27.43598562 289.55810547 10.51611328 C297.80926999 2.49969028 307.15880614 -4.87789625 318.30419922 -8.15185547 C319.72732422 -8.70099609 319.72732422 -8.70099609 321.17919922 -9.26123047 C339.48787681 -15.68687212 360.34163216 -13.44325586 377.67919922 -5.33935547 C383.03715963 -2.49091083 387.67153737 0.95350751 392.30419922 4.84814453 C393.10857422 5.44884766 393.91294922 6.04955078 394.74169922 6.66845703 C397.70660944 9.19043859 400.03512244 12.00655349 402.36669922 15.09814453 C402.80715576 15.68168701 403.2476123 16.26522949 403.70141602 16.86645508 C412.70927428 28.99986671 417.46225136 44.33510866 417.40185547 59.43408203 C417.40044052 60.13586578 417.39902557 60.83764954 417.39756775 61.56069946 C417.39201212 63.78155957 417.37946814 66.00231537 417.36669922 68.22314453 C417.36167847 69.73746598 417.35711658 71.25178903 417.35302734 72.76611328 C417.34205729 76.46015705 417.3248237 80.1541406 417.30419922 83.84814453 C419.18982323 83.83815178 419.18982323 83.83815178 421.11354065 83.82795715 C433.01420186 83.76689648 444.91483089 83.7220527 456.81561375 83.69270802 C462.93256265 83.67711403 469.04938416 83.65599121 475.16625977 83.62182617 C481.07961704 83.58900804 486.99285248 83.5712445 492.90629387 83.5635128 C495.15190483 83.55800935 497.39750983 83.54726357 499.64306831 83.53095436 C525.12315457 83.35341165 546.58187616 87.20450921 565.89013672 105.34814453 C581.44828811 121.46014597 586.78833039 140.0949388 586.68451595 161.97876453 C586.68795427 163.5930221 586.69270429 165.2072773 586.69863692 166.82152763 C586.71111358 171.24778676 586.70501146 175.67385245 586.69580324 180.10011234 C586.68908353 184.91927857 586.69976454 189.73841192 586.70819908 194.55757111 C586.72056706 203.00073031 586.72177784 211.44383393 586.71564865 219.88699913 C586.70655858 232.44243491 586.71458885 244.99781928 586.72593989 257.55325111 C586.74561292 279.97802691 586.74795298 302.40277959 586.74274469 324.82756196 C586.73818863 344.45366514 586.73878531 364.07975916 586.74458504 383.70586205 C586.7453419 386.33784003 586.74609788 388.96981801 586.74685298 391.601796 C586.74799817 395.5678886 586.74914805 399.53398121 586.75031223 403.50007381 C586.76101838 440.37672745 586.76577282 477.25337798 586.75784206 514.13003254 C586.75769376 514.82496887 586.75754545 515.51990521 586.75739265 516.23590022 C586.75573369 523.98495234 586.75398411 531.73400443 586.75219964 539.48305652 C586.75195811 540.53246872 586.75195811 540.53246872 586.75171169 541.60308117 C586.75040409 547.28018645 586.75040409 547.28018645 586.7497505 550.09087889 C586.73935935 594.83965352 586.74712563 639.58838883 586.77075195 684.3371582 C586.77669549 695.61291402 586.78258711 706.88866985 586.78816128 718.16442585 C586.78850505 718.85874451 586.78884882 719.55306317 586.78920301 720.26842179 C586.79973259 741.67175453 586.80532445 763.07508398 586.80571842 784.4784193 C586.8057312 785.15050441 586.80574399 785.82258952 586.80575716 786.51504084 C586.80599571 801.9316442 586.80477952 817.34824712 586.8025642 832.76485032 C586.80184814 838.03956012 586.80117375 843.31426992 586.80052376 848.58897972 C586.80035395 849.88775497 586.80018414 851.18653023 586.80000918 852.52466231 C586.7977055 872.13632137 586.80568651 891.74795913 586.81881523 911.35961342 C586.8337183 933.66161122 586.83458058 955.96355906 586.81674432 978.26555578 C586.80717348 990.74671432 586.80863226 1003.2277564 586.82597901 1015.70890719 C586.83645882 1024.04722207 586.83238168 1032.38544814 586.81649897 1040.72375426 C586.8078575 1045.47376682 586.80546629 1050.22355098 586.82076829 1054.97355191 C586.83457768 1059.30110579 586.82973661 1063.62823637 586.8104831 1067.9557658 C586.80677012 1069.5054228 586.80964129 1071.0551145 586.82019619 1072.60474 C586.95439916 1093.77954852 580.33787384 1111.91194431 565.80419922 1127.53564453 C560.20582934 1132.71413666 554.85491385 1137.01782032 548.05419922 1140.53564453 C547.30912109 1140.92429687 546.56404297 1141.31294922 545.79638672 1141.71337891 C533.16148483 1148.12919847 520.69732619 1149.00164636 506.72587299 1148.97677898 C504.85009051 1148.97940854 504.85009051 1148.97940854 502.93641344 1148.98209122 C499.47107621 1148.98680403 496.00576538 1148.98532514 492.54042688 1148.98281345 C488.76809654 1148.98117668 484.99577176 1148.98532427 481.22344321 1148.98872262 C474.61365591 1148.99387207 468.00387594 1148.99529461 461.39408684 1148.99426651 C451.56484219 1148.99274138 441.73560564 1148.99690379 431.90636257 1149.00214114 C413.32940562 1149.01181298 394.75245143 1149.01462532 376.17549226 1149.01519819 C361.82942913 1149.01565771 347.48336709 1149.0177159 333.13730431 1149.02089882 C329.00803604 1149.02179636 324.87876777 1149.02268617 320.7494995 1149.0235737 C319.72295494 1149.02379474 318.69641039 1149.02401579 317.63875842 1149.02424354 C288.76310057 1149.03039791 259.88744309 1149.03434409 231.01178455 1149.03390026 C229.92306374 1149.03388468 228.83434294 1149.0338691 227.71263059 1149.03385305 C222.19452268 1149.03376994 216.67641478 1149.0336709 211.15830687 1149.03356835 C210.06238816 1149.0335484 208.96646945 1149.03352845 207.83734108 1149.0335079 C205.6211262 1149.03346747 203.40491132 1149.03342567 201.18869644 1149.03338251 C166.70790604 1149.03276976 132.22712547 1149.04027632 97.74633789 1149.05395508 C59.00845522 1149.06931632 20.270579 1149.07792128 -18.46730691 1149.07699186 C-22.59814696 1149.07691723 -26.728987 1149.07686852 -30.85982704 1149.07683754 C-31.87694652 1149.07682589 -32.894066 1149.07681423 -33.94200728 1149.07680222 C-50.3084637 1149.07677145 -66.67491158 1149.0831567 -83.04136546 1149.0917698 C-99.49075961 1149.1002475 -115.94014127 1149.10123531 -132.3895364 1149.09466048 C-142.16028478 1149.09096564 -151.9309952 1149.09279526 -161.70173955 1149.10260282 C-168.23219646 1149.10860372 -174.76262589 1149.10730612 -181.29308154 1149.10013232 C-185.01136032 1149.09625178 -188.72956569 1149.09547241 -192.44783928 1149.10358968 C-196.46137305 1149.11227452 -200.47473433 1149.1053532 -204.48826885 1149.0970335 C-205.63132062 1149.10200168 -206.7743724 1149.10696986 -207.9520621 1149.11208859 C-218.8841781 1149.06424669 -230.03520759 1148.40244104 -240.00830078 1143.59814453 C-240.68143311 1143.28659424 -241.35456543 1142.97504395 -242.0480957 1142.65405273 C-260.41021284 1133.9550413 -273.74129645 1119.75711959 -280.84545898 1100.75585938 C-284.50420718 1090.27169541 -284.98444686 1080.05156656 -284.95027637 1069.03891373 C-284.95266866 1067.43521339 -284.95593541 1065.83151417 -284.95999297 1064.22781718 C-284.96860343 1059.8215847 -284.96479048 1055.41543754 -284.95893725 1051.00920378 C-284.95476485 1046.21520591 -284.9621701 1041.42122355 -284.96808976 1036.62722945 C-284.97685458 1028.22518589 -284.97816286 1019.82316669 -284.97458649 1011.42111969 C-284.96928225 998.92683913 -284.975372 986.43258218 -284.98366942 973.93830419 C-284.99891904 950.32578059 -285.00061349 926.71326771 -284.99814639 903.10074022 C-284.99631449 884.8678765 -284.99807118 866.6350163 -285.00237083 848.40215302 C-285.00297323 845.78362665 -285.00357443 843.16510029 -285.00417444 840.54657392 C-285.00508168 836.60080685 -285.00599035 832.65503979 -285.00690679 828.70927272 C-285.01533785 792.0176697 -285.01968966 755.32606811 -285.01550007 718.63446426 C-285.01542201 717.94290609 -285.01534395 717.25134791 -285.01526353 716.53883342 C-285.01439074 708.82734747 -285.01346148 701.11586153 -285.0125129 693.40437558 C-285.01242739 692.70815143 -285.01234188 692.01192729 -285.01225378 691.29460544 C-285.01154302 685.50981807 -285.01154302 685.50981807 -285.01121155 682.84785533 C-285.0056761 638.31767014 -285.01321713 593.78750567 -285.03198242 549.25732422 C-285.03670471 538.03741587 -285.04138525 526.8175075 -285.04581928 515.59759903 C-285.0460926 514.90672775 -285.04636593 514.21585648 -285.04664753 513.50404971 C-285.05501998 492.20794956 -285.0596986 470.91185114 -285.06052685 449.61574936 C-285.06055321 448.94705615 -285.06057958 448.27836293 -285.06060675 447.58940629 C-285.06117182 432.2507795 -285.06065945 416.9121529 -285.05940694 401.57352614 C-285.05901158 396.3254838 -285.05865004 391.07744146 -285.05830956 385.82939911 C-285.05821882 384.53717918 -285.05812809 383.24495926 -285.05803461 381.91358116 C-285.05686815 362.3977477 -285.06352064 342.88192681 -285.07412148 323.3660965 C-285.08616416 301.17309098 -285.08774319 278.98011318 -285.07533131 256.78710726 C-285.0686955 244.36575444 -285.07035041 231.94446788 -285.08391982 219.52312034 C-285.09215354 211.22587866 -285.08948077 202.9286867 -285.07794456 194.63144907 C-285.07167749 189.90406623 -285.07011485 185.17681285 -285.08180789 180.44943741 C-285.09236022 176.14359738 -285.08895415 171.83799626 -285.07470336 167.53216894 C-285.07198858 165.98922183 -285.07422756 164.44625538 -285.08221051 162.90332653 C-285.19490706 139.51368215 -278.82817032 120.53214931 -262.59423828 103.66455078 C-242.61817483 85.20929874 -219.87608921 83.52743854 -194.11376953 83.65283203 C-191.84548569 83.65656866 -189.57720022 83.65941256 -187.30891418 83.66140747 C-181.37917515 83.66899277 -175.44953627 83.6885967 -169.51983643 83.71081543 C-163.45285394 83.73138458 -157.38585506 83.74043272 -151.31884766 83.75048828 C-139.44445503 83.77184799 -127.57013628 83.80592135 -115.69580078 83.84814453 C-115.70463791 82.60011551 -115.70463791 82.60011551 -115.71365356 81.32687378 C-115.73298207 78.19976127 -115.74700761 75.07267951 -115.75759888 71.94552612 C-115.76594758 69.94258587 -115.78025237 67.93967328 -115.79467773 65.93676758 C-115.86226352 42.07898422 -109.35166215 24.09595447 -92.94580078 6.59814453 C-68.11677675 -17.09193344 -28.18241592 -19.14261997 0 0 Z M-232.94580078 142.34814453 C-236.20908946 147.0099855 -236.94595754 150.77730847 -236.94880044 156.43594295 C-236.95185354 157.0885458 -236.95490664 157.74114865 -236.95805225 158.41352734 C-236.96586742 160.60791803 -236.9594142 162.80203445 -236.95306969 164.99642658 C-236.95576216 166.58929362 -236.95932947 168.18215938 -236.96369416 169.77502272 C-236.97318162 174.17444314 -236.97014201 178.57378109 -236.96513861 182.97320566 C-236.961881 187.7510421 -236.97014698 192.52886057 -236.97695696 197.30669135 C-236.98728158 205.68792998 -236.9900965 214.0691455 -236.98804474 222.45038986 C-236.98500114 234.91349622 -236.99330446 247.3765769 -237.00379399 259.83967827 C-237.02316156 283.39121731 -237.02876323 306.94274766 -237.02990811 330.49429373 C-237.03082626 348.67774831 -237.03493809 366.86119947 -237.04130936 385.04465294 C-237.04310437 390.27374814 -237.044884 395.50284334 -237.04665911 400.73193854 C-237.04710121 402.03180831 -237.0475433 403.33167808 -237.0479988 404.67093785 C-237.06031155 441.24643678 -237.06821126 477.82193414 -237.06731224 514.39743519 C-237.06728068 515.79106543 -237.06724921 517.18469566 -237.06721782 518.5783259 C-237.06707105 524.87057772 -237.06689471 531.16282954 -237.06671006 537.45508136 C-237.06662781 540.26100845 -237.06654751 543.06693553 -237.06646743 545.87286262 C-237.06642664 547.27728034 -237.0663846 548.68169805 -237.06634131 550.08611577 C-237.06498069 594.49940003 -237.07961694 638.91265241 -237.10742188 683.32592773 C-237.11442378 694.5162928 -237.12136264 705.70665789 -237.12795067 716.8970232 C-237.12835642 717.58603591 -237.12876216 718.27504862 -237.12918021 718.9849405 C-237.14160788 740.21694057 -237.14914088 761.44893802 -237.15166664 782.68094158 C-237.15174654 783.34742787 -237.15182644 784.01391415 -237.15190877 784.70059699 C-237.15369178 799.98708936 -237.15407484 815.27358156 -237.15349543 830.56007403 C-237.15334616 835.7901123 -237.15324875 841.02015056 -237.1531868 846.25018883 C-237.15316349 847.53801319 -237.15314018 848.82583755 -237.15311617 850.15268689 C-237.15305454 870.90564908 -237.16584349 891.65858442 -237.18305133 912.41153861 C-237.19997879 933.2570195 -237.20200432 954.10246097 -237.18883269 974.94794492 C-237.1814243 987.34167074 -237.18515769 999.73527703 -237.20471737 1012.12899026 C-237.21667139 1020.40033449 -237.21417753 1028.67159168 -237.19977637 1036.94293184 C-237.19197453 1041.66056262 -237.19057258 1046.37796126 -237.20669107 1051.09557614 C-237.22122091 1055.38563613 -237.21740954 1059.6752701 -237.19884334 1063.96531094 C-237.19539479 1065.50926317 -237.19867685 1067.05324853 -237.20944575 1068.59716706 C-237.27340748 1078.42379312 -236.78516883 1085.17458105 -230.07080078 1092.84814453 C-227.95831965 1095.06285645 -227.95831965 1095.06285645 -225.69580078 1094.84814453 C-225.51017578 1095.48751953 -225.32455078 1096.12689453 -225.13330078 1096.78564453 C-223.83001947 1099.15254142 -223.83001947 1099.15254142 -220.87794352 1099.46883655 C-215.38814537 1100.09987452 -209.8617979 1099.98797458 -204.34401703 1099.9795723 C-203.09370589 1099.98162493 -201.84339475 1099.98367756 -200.55519539 1099.9857924 C-197.08117346 1099.99134737 -193.60717624 1099.99068879 -190.1331513 1099.98901481 C-186.35498481 1099.98828292 -182.57682524 1099.99330849 -178.79866171 1099.99758983 C-171.30376765 1100.00516626 -163.80888072 1100.0073627 -156.31398323 1100.00791888 C-147.3375147 1100.00883284 -138.36105276 1100.01550122 -129.38458706 1100.02226571 C-107.69210214 1100.0383227 -85.99961791 1100.0442281 -64.30712811 1100.04901445 C-54.04828141 1100.05135013 -43.78943527 1100.05495269 -33.530589 1100.05870983 C1.57795211 1100.07154343 36.68649291 1100.08226408 71.79503632 1100.08571243 C73.99869562 1100.08593407 76.20235493 1100.08615585 78.40601423 1100.08637778 C80.615016 1100.08659843 82.82401777 1100.08681891 85.03301954 1100.08703923 C89.46472136 1100.08748179 93.89642318 1100.0879289 98.328125 1100.08837891 C99.42692855 1100.0884883 100.52573209 1100.08859769 101.65783272 1100.08871039 C137.30796584 1100.09234319 172.95807865 1100.1082726 208.60820398 1100.13156927 C246.28979849 1100.15614853 283.97138138 1100.16988433 321.65298414 1100.17108035 C325.78681914 1100.17125181 329.92065414 1100.17146724 334.05448914 1100.17171478 C335.07237358 1100.17177055 336.09025802 1100.17182632 337.13898744 1100.17188378 C353.53855615 1100.1730357 369.93810405 1100.18406942 386.33766572 1100.19860184 C402.80959059 1100.21294643 419.28148869 1100.21621532 435.75341809 1100.20816186 C445.54564267 1100.20369641 455.33778107 1100.20760273 465.12999438 1100.22340037 C471.66590145 1100.23312108 478.20174787 1100.23200007 484.73765434 1100.22196414 C488.4648502 1100.21655112 492.19188006 1100.21592908 495.91906244 1100.22847286 C499.93030907 1100.24186043 503.94116482 1100.23214779 507.95241547 1100.22008133 C509.11442803 1100.22767652 510.27644059 1100.23527172 511.47366565 1100.24309707 C517.53541603 1100.20346505 521.94224436 1099.7507284 527.30419922 1096.84814453 C527.30419922 1096.18814453 527.30419922 1095.52814453 527.30419922 1094.84814453 C527.88169922 1094.60064453 528.45919922 1094.35314453 529.05419922 1094.09814453 C533.32846965 1091.72354985 535.36197597 1089.29122296 536.90169775 1084.67453551 C538.926065 1077.58147887 538.71807518 1070.43170172 538.68172264 1063.12588882 C538.68485547 1061.53170398 538.68930176 1059.93752128 538.69493574 1058.34334332 C538.70660725 1053.96355068 538.69963372 1049.5839567 538.68960188 1045.20416734 C538.68198933 1040.43898657 538.69177248 1035.67383616 538.69933188 1030.9086597 C538.71016899 1022.55744849 538.70983699 1014.20629545 538.7021904 1005.85508156 C538.69085075 993.43682517 538.69664006 981.01861792 538.70581532 968.60036187 C538.72162059 946.42351756 538.7202403 924.24669917 538.71157858 902.06985239 C538.70403665 882.66520511 538.70205961 863.26056733 538.70564651 843.85591888 C538.70587567 842.56956087 538.70610483 841.28320286 538.70634092 839.9578643 C538.70727491 834.73637084 538.70823011 829.51487739 538.70922022 824.29338395 C538.71195496 809.69748529 538.71368303 795.10158659 538.71457863 780.50568771 C538.71464003 779.50871025 538.71464003 779.50871025 538.71470268 778.49159183 C538.71593047 757.31373541 538.71255001 736.13588228 538.70602989 714.95802689 C538.70581914 714.27115755 538.7056084 713.58428821 538.70539126 712.87660465 C538.7019564 701.72220041 538.69829802 690.56779623 538.69462074 679.41339206 C538.68004834 635.16328091 538.68073095 590.91319698 538.6953125 546.66308594 C538.69897601 535.5095533 538.70260914 524.35602066 538.70602989 513.20248795 C538.70624124 512.51574253 538.70645258 511.82899712 538.70667033 511.12144125 C538.71313749 489.96210333 538.71588198 468.80276768 538.71457863 447.6434288 C538.71453788 446.97931884 538.71449712 446.31520889 538.71445513 445.63097438 C538.71347571 430.39984525 538.71136459 415.16871639 538.70847571 399.9375875 C538.70751352 394.72676071 538.70657501 389.51593391 538.70564651 384.30510712 C538.70540928 383.02202986 538.70517205 381.73895261 538.70492763 380.41699422 C538.7015115 361.01928701 538.70551287 341.62159034 538.71308517 322.22388458 C538.72164876 300.1766734 538.71954865 278.12949221 538.70324294 256.08228478 C538.69441287 243.73479214 538.69388957 231.38736444 538.70518147 219.03987344 C538.71188596 210.80207275 538.70776316 202.56432434 538.69466716 194.32653142 C538.68750081 189.62653924 538.68515263 184.92667648 538.69588511 180.22668818 C538.7055404 175.95506229 538.70151087 171.68368121 538.68634313 167.41207334 C538.68330975 165.87254255 538.68535105 164.33299173 538.69296094 162.79347677 C538.70254088 160.70822058 538.69371063 158.62382037 538.68024671 156.53860402 C538.68004343 155.3825293 538.67984016 154.22645458 538.67963072 153.0353473 C538.25505514 149.43093887 537.09522407 146.97998343 535.30419922 143.84814453 C534.64419922 143.84814453 533.98419922 143.84814453 533.30419922 143.84814453 C533.11857422 142.92001953 533.11857422 142.92001953 532.92919922 141.97314453 C532.43222566 139.65693622 532.43222566 139.65693622 530.30419922 137.84814453 C529.31419922 137.84814453 528.32419922 137.84814453 527.30419922 137.84814453 C527.01544922 137.20876953 526.72669922 136.56939453 526.42919922 135.91064453 C525.47596471 133.69608374 525.47596471 133.69608374 523.30419922 132.84814453 C521.87237099 132.75624616 520.43632974 132.72620995 519.0015564 132.72789001 C518.09849258 132.72651535 517.19542877 132.72514069 516.26499939 132.72372437 C514.77499168 132.72911728 514.77499168 132.72911728 513.25488281 132.73461914 C511.68899666 132.7344001 511.68899666 132.7344001 510.09147644 132.73417664 C506.62850899 132.73487531 503.16559481 132.74266563 499.70263672 132.75048828 C497.30652903 132.75235262 494.91042095 132.75377645 492.51431274 132.754776 C486.19810947 132.75859992 479.88192908 132.76842915 473.56573486 132.77947998 C467.1243928 132.78969679 460.68304705 132.7942742 454.24169922 132.79931641 C441.59585611 132.81005152 428.95002888 132.82693508 416.30419922 132.84814453 C416.28437988 133.83097412 416.26456055 134.81380371 416.24414062 135.82641602 C416.16743488 139.51122462 416.0788241 143.19567132 415.98681641 146.88012695 C415.94879265 148.46761879 415.913896 150.05518901 415.88232422 151.64282227 C415.53736533 168.7775771 412.68124251 188.86072601 399.59326172 201.50048828 C397.9585879 202.89864846 397.9585879 202.89864846 398.30419922 205.84814453 C397.68544922 206.09564453 397.06669922 206.34314453 396.42919922 206.59814453 C394.15418394 207.67210664 394.15418394 207.67210664 393.30419922 209.91064453 C392.97419922 210.55001953 392.64419922 211.18939453 392.30419922 211.84814453 C391.70994141 211.99509766 391.11568359 212.14205078 390.50341797 212.29345703 C387.8851773 212.95383035 386.30374609 214.08708622 384.11669922 215.66064453 C377.39442274 220.2520033 370.48177556 222.96548444 362.66357422 225.13720703 C360.28919049 225.77999462 360.28919049 225.77999462 358.15966797 226.91845703 C353.76665591 228.34874003 349.45526095 228.13619757 344.86669922 228.09814453 C343.47354492 228.10974609 343.47354492 228.10974609 342.05224609 228.12158203 C337.02297404 228.10726382 333.02589543 227.72914546 328.30419922 225.84814453 C326.92824651 225.42945811 325.54900681 225.02149346 324.16748047 224.62158203 C315.47903018 221.98845934 308.51475437 219.35694049 301.46826172 213.48486328 C299.30227807 211.84669153 297.89768336 211.42384101 295.30419922 210.84814453 C294.6048239 209.53167334 293.93690788 208.19792302 293.30419922 206.84814453 C292.31419922 206.51814453 291.32419922 206.18814453 290.30419922 205.84814453 C289.94306787 204.52207023 289.6146234 203.18699692 289.30419922 201.84814453 C288.28758547 200.37783539 287.21818047 198.94349806 286.11669922 197.53564453 C280.14086441 189.24816991 277.01342003 179.63209916 274.30419922 169.84814453 C273.97419922 168.85814453 273.64419922 167.86814453 273.30419922 166.84814453 C273.15098829 164.26505558 273.04705513 161.70304192 272.98779297 159.11767578 C272.96914185 158.45231812 272.95049072 157.78696045 272.93127441 157.10144043 C272.86309158 154.62130732 272.8028696 152.14096051 272.74169922 149.66064453 C272.59732422 144.11251953 272.45294922 138.56439453 272.30419922 132.84814453 C256.13419922 132.84814453 239.96419922 132.84814453 223.30419922 132.84814453 C223.0155053 142.49583692 223.0155053 142.49583692 222.73608398 152.14379883 C222.69797607 153.3494751 222.65986816 154.55515137 222.62060547 155.79736328 C222.58394775 157.02801514 222.54729004 158.25866699 222.50952148 159.52661133 C222.2674105 163.44328186 221.65683709 166.8372493 220.36669922 170.53564453 C219.26526967 173.59248696 219.26526967 173.59248696 219.08154297 175.85595703 C217.46551792 189.28489762 207.21518904 203.19219588 197.11279297 211.69189453 C179.43611502 224.97124403 159.91340247 229.28870468 138.22607422 227.60986328 C131.09147667 226.44045077 124.70440342 223.08040846 118.30419922 219.84814453 C117.46373047 219.43306641 116.62326172 219.01798828 115.75732422 218.59033203 C110.86237092 216.04158049 106.93877728 212.99888617 102.93310547 209.20361328 C101.40115958 207.6349311 101.40115958 207.6349311 99.30419922 207.84814453 C98.64419922 206.52814453 97.98419922 205.20814453 97.30419922 203.84814453 C96.64419922 203.84814453 95.98419922 203.84814453 95.30419922 203.84814453 C94.64419922 202.19814453 93.98419922 200.54814453 93.30419922 198.84814453 C92.64419922 198.84814453 91.98419922 198.84814453 91.30419922 198.84814453 C91.14564453 197.76146484 91.14564453 197.76146484 90.98388672 196.65283203 C90.24481568 193.60310211 89.08933886 191.62441232 87.42919922 188.97314453 C82.21624031 179.72233017 81.37987403 169.24633442 80.30419922 158.84814453 C79.97419922 158.51814453 79.64419922 158.18814453 79.30419922 157.84814453 C79.14633614 155.99639747 79.05312566 154.13905343 78.98779297 152.28173828 C78.94968506 151.26909912 78.91157715 150.25645996 78.87231445 149.21313477 C78.82921143 147.91706299 78.7861084 146.62099121 78.74169922 145.28564453 C78.59732422 141.18126953 78.45294922 137.07689453 78.30419922 132.84814453 C62.13419922 132.84814453 45.96419922 132.84814453 29.30419922 132.84814453 C29.01486165 143.99242108 29.01486165 143.99242108 28.73608398 155.13696289 C28.69797566 156.52898193 28.65950778 157.9209912 28.62060547 159.31298828 C28.60412964 160.04199341 28.58765381 160.77099854 28.57067871 161.52209473 C28.41827102 166.73407273 28.41827102 166.73407273 27.30419922 167.84814453 C27.24361328 168.52619141 27.18302734 169.20423828 27.12060547 169.90283203 C26.17229661 180.436355 20.86030128 193.29204247 13.30419922 200.84814453 C13.30419922 201.83814453 13.30419922 202.82814453 13.30419922 203.84814453 C12.74732422 204.07501953 12.19044922 204.30189453 11.61669922 204.53564453 C8.64260334 206.22364489 6.58411057 208.3149097 4.30419922 210.84814453 C4.30419922 211.50814453 4.30419922 212.16814453 4.30419922 212.84814453 C3.73701172 212.95642578 3.16982422 213.06470703 2.58544922 213.17626953 C-0.03541329 213.94816739 -1.90283349 215.11535901 -4.19580078 216.59814453 C-9.04752726 219.59883975 -14.02406888 221.78118255 -19.32470703 223.86767578 C-21.61123134 224.63582874 -21.61123134 224.63582874 -22.69580078 225.84814453 C-24.75309248 226.16737945 -26.81193599 226.35975805 -28.88330078 226.56689453 C-30.71255408 226.66812497 -30.71255408 226.66812497 -31.69580078 227.84814453 C-35.08410887 228.10106679 -38.48667802 228.03337861 -41.88330078 228.03564453 C-42.83011719 228.04789062 -43.77693359 228.06013672 -44.75244141 228.07275391 C-49.84564808 228.08341659 -53.90522134 227.7629202 -58.69580078 225.84814453 C-59.99517578 225.64189453 -61.29455078 225.43564453 -62.63330078 225.22314453 C-68.08357766 224.09774606 -72.66656911 221.3901621 -77.46704102 218.6796875 C-80.53613254 216.95254855 -83.26832227 215.63204473 -86.69580078 214.84814453 C-87.12892578 213.95095703 -87.12892578 213.95095703 -87.57080078 213.03564453 C-88.60805526 210.56305434 -88.60805526 210.56305434 -91.57080078 209.03564453 C-95.47740868 206.301019 -96.46050422 204.02069811 -98.69580078 199.84814453 C-99.31970703 199.27837891 -99.94361328 198.70861328 -100.58642578 198.12158203 C-103.41904089 195.06865241 -104.7386783 191.7884399 -106.32080078 187.97314453 C-106.61986328 187.27833984 -106.91892578 186.58353516 -107.22705078 185.86767578 C-111.73426756 175.2777107 -111.73426756 175.2777107 -112.25830078 169.53564453 C-112.2859467 166.05170787 -112.2859467 166.05170787 -113.69580078 164.84814453 C-113.77145076 162.56805404 -113.7788629 160.28564699 -113.75830078 158.00439453 C-113.75262085 156.97795837 -113.75262085 156.97795837 -113.74682617 155.93078613 C-113.7304049 152.99154534 -113.70226363 150.05244109 -113.67529297 147.11328125 C-113.657294 144.97282545 -113.64514553 142.83239176 -113.63330078 140.69189453 C-113.62169922 139.40476563 -113.61009766 138.11763672 -113.59814453 136.79150391 C-113.35654763 133.959641 -113.35654763 133.959641 -114.69580078 132.84814453 C-116.03499831 132.73434903 -117.3800243 132.68808182 -118.72392273 132.66973877 C-120.02558632 132.64855232 -120.02558632 132.64855232 -121.35354614 132.62693787 C-122.3130014 132.61646927 -123.27245667 132.60600067 -124.26098633 132.59521484 C-125.76830574 132.57313713 -125.76830574 132.57313713 -127.30607605 132.5506134 C-130.64817568 132.50350774 -133.99030442 132.46425233 -137.33251953 132.42626953 C-138.47150003 132.41240959 -139.61048054 132.39854965 -140.7839756 132.38426971 C-146.81434764 132.31090684 -152.84475205 132.24335757 -158.87524414 132.18066406 C-165.10875521 132.11481747 -171.34186043 132.03020745 -177.5750761 131.94108963 C-182.36280661 131.87595394 -187.15061442 131.8244894 -191.93854713 131.77675629 C-194.23629688 131.75150393 -196.53399635 131.72114278 -198.83160973 131.68558502 C-202.04898978 131.63712288 -205.26600282 131.60796769 -208.48364258 131.58349609 C-209.90764374 131.55564781 -209.90764374 131.55564781 -211.3604126 131.52723694 C-220.81433 131.49673782 -226.63022579 135.33083899 -232.94580078 142.34814453 Z " fill="#010201" transform="translate(497.69580078125,82.15185546875)"/>
<path d="M0 0 C1.88665768 1.11798383 3.79427584 2.18436155 5.71679688 3.23925781 C10.67257607 5.98371665 15.5067742 8.83906107 20.19335938 12.02441406 C25.00812747 15.26167668 30.00792402 18.06505832 35.10742188 20.82519531 C35.97044922 21.29763672 36.83347656 21.77007813 37.72265625 22.25683594 C41.27718096 24.19591483 44.8204883 26.08989281 48.47070312 27.84472656 C50.91992188 29.13769531 50.91992188 29.13769531 51.91992188 31.13769531 C53.89881148 31.86463435 55.89946745 32.53585782 57.91992188 33.13769531 C57.91992188 33.79769531 57.91992188 34.45769531 57.91992188 35.13769531 C58.58765625 35.38003906 59.25539063 35.62238281 59.94335938 35.87207031 C63.64646451 37.44661895 67.05821062 39.38724545 70.54492188 41.38769531 C71.98202346 42.20610365 73.41952448 43.02381098 74.85742188 43.84082031 C75.90349609 44.43540039 75.90349609 44.43540039 76.97070312 45.04199219 C79.47362592 46.44894578 82.00778462 47.79361665 84.54492188 49.13769531 C88.61865007 51.34052611 92.49273855 53.77933725 96.35742188 56.32519531 C103.72253534 61.16658402 111.41153375 65.36517654 119.15820312 69.55957031 C119.94404785 69.98560547 120.72989258 70.41164063 121.53955078 70.85058594 C123.16424213 71.72908571 124.79165162 72.60257247 126.42138672 73.47167969 C127.61755615 74.1184668 127.61755615 74.1184668 128.83789062 74.77832031 C129.55098389 75.16020508 130.26407715 75.54208984 130.9987793 75.93554688 C132.93966664 77.15005054 134.31697375 78.51860158 135.91992188 80.13769531 C138.02325079 80.85217174 138.02325079 80.85217174 139.91992188 81.13769531 C139.91992188 81.79769531 139.91992188 82.45769531 139.91992188 83.13769531 C141.20189453 83.50894531 141.20189453 83.50894531 142.50976562 83.88769531 C146.20835223 85.24342007 149.17119283 87.01100275 152.48242188 89.13769531 C156.23571517 91.54263236 159.74196269 93.58711252 163.91992188 95.13769531 C166.73242188 96.63769531 166.73242188 96.63769531 168.91992188 98.13769531 C168.91992188 98.79769531 168.91992188 99.45769531 168.91992188 100.13769531 C169.75523437 100.37617187 170.59054687 100.61464844 171.45117188 100.86035156 C175.45959325 102.33642565 178.81206811 104.31937563 182.41992188 106.57519531 C186.84306369 109.31396898 191.25571551 111.82124383 195.91992188 114.13769531 C197.95472127 115.34360139 199.97508947 116.57410192 201.98242188 117.82519531 C202.5404248 118.17114746 203.09842773 118.51709961 203.67333984 118.87353516 C206.54184689 120.65218635 209.40448154 122.44019172 212.26757812 124.22753906 C218.16126943 127.8873879 224.09104834 131.35947794 230.21289062 134.62207031 C234.10274212 136.79993811 237.80257134 139.24644378 241.50976562 141.71972656 C243.73079308 143.02642505 245.45657802 143.53701415 247.91992188 144.13769531 C248.24992187 144.79769531 248.57992188 145.45769531 248.91992188 146.13769531 C250.49126224 147.08993347 252.10374298 147.97474067 253.73242188 148.82519531 C259.02257465 151.62911441 264.16471916 154.62756638 269.29101562 157.71972656 C271.56957276 158.94872543 273.39334658 159.67777499 275.91992188 160.13769531 C275.91992188 160.79769531 275.91992188 161.45769531 275.91992188 162.13769531 C276.72429687 162.34394531 277.52867187 162.55019531 278.35742188 162.76269531 C281.322753 163.90720908 283.238265 164.92869218 285.79492188 166.70019531 C289.89485878 169.53650007 294.12260661 171.98334686 298.48242188 174.38769531 C305.04292665 178.00806424 311.40797371 181.86879287 317.69165039 185.95117188 C321.17630999 188.24041036 321.17630999 188.24041036 325.06542969 189.63574219 C325.98340332 189.88420898 325.98340332 189.88420898 326.91992188 190.13769531 C327.24992187 190.79769531 327.57992188 191.45769531 327.91992188 192.13769531 C328.57992188 192.30269531 329.23992187 192.46769531 329.91992188 192.63769531 C330.57992188 192.80269531 331.23992187 192.96769531 331.91992188 193.13769531 C332.24992187 193.79769531 332.57992188 194.45769531 332.91992188 195.13769531 C334.53353344 196.10996217 336.1871927 197.0162714 337.85742188 197.88769531 C341.70468559 199.92859137 345.46191636 202.04115505 349.16992188 204.32519531 C352.05101913 206.08510002 354.85358331 207.6195917 357.98242188 208.88769531 C360.91992188 210.13769531 360.91992188 210.13769531 361.91992188 212.13769531 C363.51390789 213.08761687 365.14660707 213.97302123 366.79492188 214.82519531 C379.44128767 221.60062146 388.89380216 227.24350049 393.91992188 241.13769531 C396.22965669 249.22176717 394.68153053 257.3539677 391.91992188 265.13769531 C389.73242188 267.95019531 389.73242188 267.95019531 386.91992188 270.13769531 C385.53949657 271.33982693 384.1648487 272.54861338 382.79492188 273.76269531 C382.13234375 274.33246094 381.46976563 274.90222656 380.78710938 275.48925781 C378.93109447 277.06489064 378.93109447 277.06489064 377.49023438 278.72363281 C375.47544855 280.53794244 373.44657865 281.14776048 370.91992188 282.13769531 C368.49926911 283.54582361 366.11199521 284.97647885 363.73242188 286.45019531 C359.4908407 289.04124593 355.28158748 291.54895335 350.79492188 293.70019531 C347.09073361 295.48592777 343.64874472 297.50682897 340.16992188 299.70019531 C334.17623161 303.45870893 328.02265288 306.84572003 321.79492188 310.20019531 C315.13610758 313.78790407 308.59742745 317.38829224 302.33398438 321.63769531 C300.30706914 322.89713779 298.31957382 323.95656177 296.18164062 325.00488281 C291.69160262 327.21003699 287.40476996 329.70628524 283.10742188 332.26269531 C281.98303711 332.92591797 281.98303711 332.92591797 280.8359375 333.60253906 C277.81438073 335.39009097 274.84225492 337.18947328 271.91992188 339.13769531 C270.92992187 339.13769531 269.93992187 339.13769531 268.91992188 339.13769531 C268.91992188 339.79769531 268.91992188 340.45769531 268.91992188 341.13769531 C268.32179688 341.24082031 267.72367188 341.34394531 267.10742188 341.45019531 C264.87157214 341.96728305 264.87157214 341.96728305 263.50537109 343.5546875 C261.86662337 345.19091175 260.414769 346.09546127 258.36523438 347.15332031 C257.67365234 347.51417725 256.98207031 347.87503418 256.26953125 348.24682617 C255.53541016 348.62331299 254.80128906 348.9997998 254.04492188 349.38769531 C252.51615783 350.18564596 250.98751338 350.98382577 249.45898438 351.78222656 C247.94603203 352.56751478 246.43301353 353.35267555 244.91992188 354.13769531 C242.41503516 355.44140479 239.91627272 356.75506299 237.41992188 358.07519531 C235.85757813 358.89310547 235.85757813 358.89310547 234.26367188 359.72753906 C231.8044632 360.9220777 231.8044632 360.9220777 230.91992188 363.13769531 C229.32178054 363.79779717 227.72254395 364.45532352 226.11914062 365.10253906 C223.52977226 366.3213359 221.245675 367.81081326 218.85742188 369.38769531 C214.65373269 372.13048702 210.3671393 374.50703823 205.85742188 376.70019531 C200.69313566 379.21423794 195.7699161 381.91769895 190.90820312 384.97363281 C188.91992188 386.13769531 188.91992188 386.13769531 185.91992188 387.13769531 C185.46617187 387.61207031 185.01242187 388.08644531 184.54492188 388.57519531 C182.91992188 390.13769531 182.91992188 390.13769531 180.85351562 390.92675781 C176.79279935 392.60295228 173.12780438 394.83238409 169.35742188 397.07519531 C168.60267578 397.51798828 167.84792969 397.96078125 167.0703125 398.41699219 C162.83198334 400.91578737 162.83198334 400.91578737 158.83007812 403.76660156 C156.61818111 405.35428224 154.28100335 406.28741564 151.77148438 407.31591797 C148.65668299 408.69835751 145.8058373 410.52674883 142.91992188 412.32519531 C137.58356069 415.58915699 132.19110572 418.69644701 126.66992188 421.63769531 C126.03828125 421.97567139 125.40664063 422.31364746 124.75585938 422.66186523 C122.16529694 424.02961715 119.70522361 425.2092614 116.91992188 426.13769531 C116.91992188 426.79769531 116.91992188 427.45769531 116.91992188 428.13769531 C115.99179687 428.48832031 115.06367187 428.83894531 114.10742188 429.20019531 C110.74024879 430.63361036 107.79164471 432.44618267 104.73242188 434.45019531 C99.9288998 437.58235491 95.01346333 440.15586273 89.85742188 442.65332031 C86.10164176 444.55118793 82.54413092 446.70777143 78.97851562 448.93847656 C76.91992188 450.13769531 76.91992188 450.13769531 73.91992188 451.13769531 C73.46617187 451.61207031 73.01242187 452.08644531 72.54492188 452.57519531 C70.91992188 454.13769531 70.91992188 454.13769531 68.80664062 454.95019531 C65.00905413 456.51239598 61.62058863 458.58644933 58.10742188 460.70019531 C52.37808175 464.1121678 46.62191139 467.45778659 40.79492188 470.70019531 C34.8833766 473.9915785 29.08432568 477.43659756 23.30908203 480.96069336 C18.44905528 483.89476725 13.45595337 486.44463142 8.31054688 488.84863281 C6.02924091 490.07874878 4.69625206 491.29576202 2.91992188 493.13769531 C1.22278907 493.88835021 -0.47742411 494.63394914 -2.20117188 495.32128906 C-4.3792726 496.21822501 -4.3792726 496.21822501 -7.39257812 498.13769531 C-15.56245269 502.87914037 -24.68508006 504.70111335 -33.90820312 502.44628906 C-41.58911551 499.93845018 -46.80296135 496.58590071 -51.26757812 489.82519531 C-51.88654676 488.60341551 -52.49030206 487.37383133 -53.08007812 486.13769531 C-53.42178638 485.50726665 -53.76349463 484.87683798 -54.11555767 484.22730541 C-57.33957829 477.84298169 -57.63354951 472.30400946 -57.55004883 465.23461914 C-57.55221374 464.05856141 -57.55437864 462.88250368 -57.55660915 461.67080784 C-57.55847678 458.41736173 -57.54236612 455.16458894 -57.51847172 451.91124868 C-57.49688184 448.37376424 -57.49854768 444.8362761 -57.49713135 441.29873657 C-57.49060641 434.30946018 -57.46227854 427.32042847 -57.42695081 420.33124495 C-57.38590248 412.03093216 -57.36754278 403.73060886 -57.34930599 395.43022025 C-57.30417809 375.51323571 -57.21595442 355.59651216 -57.12042719 335.67971581 C-57.0794833 327.11183175 -57.04222571 318.5439335 -57.0053072 309.9760313 C-56.81896777 266.7318722 -56.58627722 223.48813813 -56.30235475 180.24450976 C-56.17106699 160.24038853 -56.05090819 140.23633055 -55.96117306 120.23197651 C-55.90725313 108.22530746 -55.84457174 96.21871106 -55.77358341 84.21213055 C-55.7338692 77.43926826 -55.69921898 70.66646835 -55.67678833 63.89352417 C-55.65628275 57.73862636 -55.62234763 51.58395699 -55.57751274 45.42918968 C-55.5638399 43.22182965 -55.5551556 41.01443178 -55.55201912 38.80703163 C-55.54712181 35.8242136 -55.52410629 32.84205775 -55.49658203 29.859375 C-55.49958596 29.01194953 -55.50258989 28.16452406 -55.50568485 27.29141903 C-55.369348 17.43221179 -52.49201655 8.69049665 -46.08007812 1.13769531 C-32.53645792 -11.71773281 -14.63938348 -8.69075182 0 0 Z " fill="#0B0000" transform="translate(517.080078125,491.8623046875)"/>
<path d="M0 0 C5.92562941 3.46072533 9.71874569 8.77878736 12.4375 15 C12.69756222 17.1693449 12.69756222 17.1693449 12.71165466 19.55851746 C12.72661736 20.92296997 12.72661736 20.92296997 12.74188232 22.31498718 C12.742547 23.30569717 12.74321167 24.29640717 12.74389648 25.31713867 C12.75222 26.36640533 12.76054352 27.415672 12.76911926 28.49673462 C12.79324176 31.97051696 12.80199522 35.44411149 12.80859375 38.91796875 C12.81755995 41.33449866 12.8266818 43.751028 12.83595276 46.16755676 C12.85245255 51.23745065 12.86014441 56.30727844 12.86303711 61.37719727 C12.86841488 67.86258529 12.90606665 74.34734868 12.95178127 80.83256054 C12.98158018 85.82640325 12.98876133 90.82009627 12.98976326 95.81402016 C12.99396163 98.20415412 13.0063804 100.59428868 13.02728081 102.98433495 C13.05424581 106.33531412 13.04935279 109.68485508 13.03686523 113.03588867 C13.05169952 114.01647751 13.06653381 114.99706635 13.08181763 116.00737 C12.99865794 123.87507389 10.55062112 129.40701435 5.41015625 135.33984375 C-2.23092655 141.73085165 -8.66868048 142.82670729 -18.5625 142 C-25.14095731 140.16665944 -29.92081548 136.12095374 -33.58351231 130.40724945 C-36.77770036 124.69350191 -37.12935209 119.85959695 -37.06420898 113.39648438 C-37.06961197 112.36453445 -37.07501495 111.33258453 -37.08058167 110.2693634 C-37.09303172 106.87719549 -37.07660193 103.48588247 -37.05859375 100.09375 C-37.05874882 97.72538204 -37.06023919 95.35701382 -37.06300354 92.98864746 C-37.06438588 88.03251891 -37.05185669 83.07668032 -37.02905273 78.12060547 C-37.00066907 71.77884051 -37.00340788 65.43755712 -37.01614285 59.09575653 C-37.02310931 54.2074576 -37.0152996 49.3192693 -37.00288582 44.4309845 C-36.99838075 42.09308802 -36.99802623 39.75517963 -37.00195122 37.4172821 C-37.00487284 34.14578041 -36.98831015 30.87493432 -36.96655273 27.60351562 C-36.97330521 26.16471794 -36.97330521 26.16471794 -36.98019409 24.69685364 C-36.88411837 15.96920236 -34.91942252 9.35692252 -28.5625 3 C-20.90498417 -4.20148511 -9.30526577 -4.13880202 0 0 Z " fill="#F1FAE9" transform="translate(660.5625,121)"/>
<path d="M0 0 C1.2890625 -0.00515625 2.578125 -0.0103125 3.90625 -0.015625 C9.52305712 0.39953031 12.87390187 2.1968753 17.125 5.8125 C17.88039063 6.43253906 18.63578125 7.05257812 19.4140625 7.69140625 C24.65202552 14.11624854 24.93938177 21.89749823 24.88818359 29.87524414 C24.89344055 30.89758652 24.89869751 31.91992889 24.90411377 32.97325134 C24.91723685 36.32737851 24.90860345 39.68102489 24.8984375 43.03515625 C24.90046028 45.3796752 24.90337342 47.72419353 24.90713501 50.06871033 C24.91154782 54.97173072 24.90516019 59.87458667 24.89111328 64.77758789 C24.87401278 71.05092726 24.88387499 77.32388177 24.90183067 83.59720707 C24.91268851 88.43487938 24.90921311 93.27246094 24.9014473 98.11013603 C24.89945132 100.42291752 24.90188331 102.73570734 24.90888596 105.04847908 C24.91653424 108.28392389 24.90484881 111.51875136 24.88818359 114.75415039 C24.89729263 116.1765654 24.89729263 116.1765654 24.90658569 117.62771606 C24.83455846 125.20459545 23.46056861 132.05415659 18.12890625 137.86328125 C12.1031118 142.99315423 5.88134617 144.95879036 -1.9609375 144.5390625 C-8.72765723 143.76869748 -12.75601696 141.99398304 -17.5 137.25 C-18.875 134.4375 -18.875 134.4375 -19.5 132.25 C-20.16 132.25 -20.82 132.25 -21.5 132.25 C-23.81064538 126.72726811 -23.79599909 121.67864325 -23.79052734 115.79760742 C-23.79724457 114.75780228 -23.80396179 113.71799713 -23.81088257 112.64668274 C-23.82984845 109.21622919 -23.83378612 105.78597144 -23.8359375 102.35546875 C-23.84236649 99.96421733 -23.84909493 97.57296669 -23.85610962 95.18171692 C-23.86807894 90.17084937 -23.8717908 85.16005075 -23.87060547 80.14916992 C-23.87040233 73.7401516 -23.8977017 67.33157693 -23.93214989 60.92266369 C-23.95442848 55.98372889 -23.9584427 51.04490069 -23.95738602 46.10592079 C-23.95974062 43.74371118 -23.96855616 41.38149857 -23.98405075 39.01933861 C-24.00372889 35.7094385 -23.99786471 32.40049289 -23.98583984 29.09057617 C-23.99707886 28.12248016 -24.00831787 27.15438416 -24.01989746 26.1569519 C-23.95197791 18.76966148 -22.20199807 12.8707983 -17.75390625 6.91015625 C-17.19574219 6.38292969 -16.63757813 5.85570313 -16.0625 5.3125 C-15.50691406 4.76722656 -14.95132813 4.22195312 -14.37890625 3.66015625 C-9.79879567 0.2226928 -5.62992552 -0.0225197 0 0 Z " fill="#F4FDEC" transform="translate(841.5,118.75)"/>
<path d="M0 0 C6.3470488 4.01547986 10.8672852 8.60532953 13.0625 15.9375 C13.49269663 19.48719547 13.49312339 23.00675035 13.48242188 26.5793457 C13.49089142 27.62744415 13.49936096 28.6755426 13.50808716 29.75540161 C13.5314188 33.20815281 13.53248009 36.66045729 13.53125 40.11328125 C13.53835451 42.52312904 13.54605394 44.93297514 13.55432129 47.34281921 C13.56775781 52.39062197 13.5693388 57.43826836 13.56347656 62.48608398 C13.55758533 68.93881098 13.58815325 75.39078433 13.62859344 81.84336567 C13.65450802 86.82010404 13.65734432 91.79666194 13.65370178 96.77345848 C13.65538989 99.15159179 13.6650024 101.52973371 13.68284607 103.90780067 C13.7051061 107.2415292 13.69529624 110.57374511 13.67773438 113.9074707 C13.69099762 114.87975113 13.70426086 115.85203156 13.71792603 116.85377502 C13.63366766 123.77537649 11.9794234 129.17892764 8.0625 134.9375 C2.48572662 140.34694845 -3.07456423 142.97572346 -10.875 143.1875 C-15.23369132 143.10837096 -18.83123799 142.36576505 -22.9375 140.9375 C-22.9375 140.2775 -22.9375 139.6175 -22.9375 138.9375 C-23.69546875 138.69902344 -24.4534375 138.46054687 -25.234375 138.21484375 C-28.38304102 136.72696255 -29.36308258 135.42386897 -31.1875 132.5 C-31.68765625 131.71753906 -32.1878125 130.93507812 -32.703125 130.12890625 C-34.55405058 126.84292761 -35.06442586 124.2417204 -35.08467102 120.53720093 C-35.09182632 119.63735474 -35.09898163 118.73750854 -35.10635376 117.81039429 C-35.10904266 116.82543976 -35.11173157 115.84048523 -35.11450195 114.82568359 C-35.12107315 113.78631653 -35.12764435 112.74694946 -35.13441467 111.67608643 C-35.15415717 108.2293694 -35.16581367 104.78269601 -35.17578125 101.3359375 C-35.17985678 100.15840534 -35.1839323 98.98087318 -35.18813133 97.76765823 C-35.2089981 91.53277003 -35.2232961 85.29790386 -35.23266602 79.06298828 C-35.24371967 72.63036911 -35.27810626 66.19809689 -35.31783772 59.7656002 C-35.34401735 54.81380583 -35.35235918 49.86209385 -35.35594749 44.91023636 C-35.36081148 42.53964526 -35.37242002 40.16905779 -35.39098549 37.79853439 C-35.41540013 34.4739737 -35.41440697 31.15030698 -35.4074707 27.82568359 C-35.42028076 26.85287445 -35.43309082 25.88006531 -35.44628906 24.8777771 C-35.39290786 17.8300654 -34.14917813 11.40129617 -29.21667957 6.08159447 C-21.20875906 -1.27237601 -10.47435295 -3.83266097 0 0 Z " fill="#F4FDEC" transform="translate(465.9375,120.0625)"/>
<path d="M0 0 C4.49519602 1.83137616 7.32068433 5.18633908 10.5625 8.6875 C12.23456517 10.2141682 13.94228223 11.07757479 16 12 C16 12.66 16 13.32 16 14 C14.35 14 12.7 14 11 14 C10.7525 13.38125 10.505 12.7625 10.25 12.125 C9.19995835 9.88950792 9.19995835 9.88950792 7.1875 9.125 C3.86666675 7.4171429 2.23567167 4.98089556 0 2 C0 1.34 0 0.68 0 0 Z " fill="#76B741" transform="translate(263,1167)"/>
<path d="M0 0 C0.66 0.33 1.32 0.66 2 1 C1.01 1.33 0.02 1.66 -1 2 C-1.68502385 3.32399568 -2.34859211 4.6591458 -3 6 C-4.32774288 7.4610504 -5.70631676 8.87708074 -7.125 10.25 C-7.84945313 10.95640625 -8.57390625 11.6628125 -9.3203125 12.390625 C-9.87460937 12.92171875 -10.42890625 13.4528125 -11 14 C-11.99 13.67 -12.98 13.34 -14 13 C-12.04468135 11.0177733 -10.08594334 9.03914884 -8.125 7.0625 C-7.56941406 6.49853516 -7.01382812 5.93457031 -6.44140625 5.35351562 C-2.2265625 1.11328125 -2.2265625 1.11328125 0 0 Z " fill="#282828" transform="translate(412,83)"/>
<path d="M0 0 C0.66 0.33 1.32 0.66 2 1 C1.36191406 1.61488281 0.72382812 2.22976562 0.06640625 2.86328125 C-1.17302734 4.07564453 -1.17302734 4.07564453 -2.4375 5.3125 C-3.26121094 6.11300781 -4.08492187 6.91351563 -4.93359375 7.73828125 C-7.19403477 9.90470808 -7.19403477 9.90470808 -8 13 C-8.66 13 -9.32 13 -10 13 C-8.04643572 7.30210418 -4.98086349 3.37987165 0 0 Z " fill="#C1C9BC" transform="translate(636,121)"/>
<path d="M0 0 C0.66 0.33 1.32 0.66 2 1 C1.01 1.66 0.02 2.32 -1 3 C-0.67 2.01 -0.34 1.02 0 0 Z M-4 3 C-3.01 3.33 -2.02 3.66 -1 4 C-2.485 5.485 -2.485 5.485 -4 7 C-4.99 6.67 -5.98 6.34 -7 6 C-6.01 5.01 -5.02 4.02 -4 3 Z " fill="#181818" transform="translate(791,91)"/>
</svg>
